<?xml version="1.0" encoding="UTF-8" standalone="no"?>
<!DOCTYPE svg PUBLIC "-//W3C//DTD SVG 1.1//EN" "http://www.w3.org/Graphics/SVG/1.1/DTD/svg11.dtd">
<!-- Generated by Microsoft Visio, SVG Export flowChart.svg first -->
<svg xmlns="http://www.w3.org/2000/svg" xmlns:xlink="http://www.w3.org/1999/xlink" xmlns:ev="http://www.w3.org/2001/xml-events"
		xmlns:v="http://schemas.microsoft.com/visio/2003/SVGExtensions/" width="7.36279in" height="6.56528in"
		viewBox="0 0 530.121 472.7" xml:space="preserve" color-interpolation-filters="sRGB" class="st9">
	<title>sis_elaborato_VR4XXXXX_VR414014</title>
	<v:documentProperties v:langID="1033" v:viewMarkup="false">
		<v:userDefs>
			<v:ud v:nameU="msvSubprocessMaster" v:prompt="" v:val="VT4(Rectangle)"/>
			<v:ud v:nameU="msvNoAutoConnect" v:val="VT0(1):26"/>
		</v:userDefs>
	</v:documentProperties>

	<style type="text/css">
	<![CDATA[
		.st1 {fill:#4672c4;stroke:#c7c8c8;stroke-width:0.25}
		.st2 {fill:#feffff;font-family:Calibri;font-size:0.75em}
		.st3 {font-size:1em}
		.st4 {marker-end:url(#mrkr4-25);stroke:#4672c4;stroke-linecap:round;stroke-linejoin:round;stroke-width:1}
		.st5 {fill:#4672c4;fill-opacity:1;stroke:#4672c4;stroke-opacity:1;stroke-width:0.28409090909091}
		.st6 {fill:#feffff;font-family:OpenDyslexic;font-size:1.00001em}
		.st7 {fill:#feffff;font-family:Calibri;font-size:1.00001em}
		.st8 {marker-end:url(#mrkr4-25);marker-start:url(#mrkr4-142);stroke:#4672c4;stroke-linecap:round;stroke-linejoin:round;stroke-width:1}
		.st9 {fill:none;fill-rule:evenodd;font-size:12px;overflow:visible;stroke-linecap:square;stroke-miterlimit:3}
	]]>
	</style>

	<defs id="Markers">
		<g id="lend4">
			<path d="M 2 1 L 0 0 L 2 -1 L 2 1 " style="stroke:none"/>
		</g>
		<marker id="mrkr4-25" class="st5" v:arrowType="4" v:arrowSize="2" v:setback="7.04" refX="-7.04" orient="auto"
				markerUnits="strokeWidth" overflow="visible">
			<use xlink:href="#lend4" transform="scale(-3.52,-3.52) "/>
		</marker>
		<marker id="mrkr4-142" class="st5" v:arrowType="4" v:arrowSize="2" v:setback="6.68" refX="6.68" orient="auto"
				markerUnits="strokeWidth" overflow="visible">
			<use xlink:href="#lend4" transform="scale(3.52) "/>
		</marker>
	</defs>
	<g v:mID="0" v:index="1" v:groupContext="foregroundPage">
		<v:userDefs>
			<v:ud v:nameU="msvThemeOrder" v:val="VT0(0):26"/>
		</v:userDefs>
		<title>first</title>
		<v:pageProperties v:drawingScale="1" v:pageScale="1" v:drawingUnits="0" v:shadowOffsetX="9" v:shadowOffsetY="-9"/>
		<v:layer v:name="Connector" v:index="0"/>
		<g id="shape3-1" v:mID="3" v:groupContext="shape" transform="translate(144.877,-271.635)">
			<title>Rectangle.3</title>
			<desc>NA NB NC NE NF spegniti! err1 err2 err3</desc>
			<v:userDefs>
				<v:ud v:nameU="visVersion" v:val="VT0(15):26"/>
			</v:userDefs>
			<v:textBlock v:margins="rect(4,4,4,4)"/>
			<v:textRect cx="36.8437" cy="448.138" width="73.69" height="49.125"/>
			<rect x="0" y="423.575" width="73.6875" height="49.125" class="st1"/>
			<text x="6.53" y="439.85" class="st2" v:langID="1033"><v:paragraph v:horizAlign="1"/><v:tabList/>NA NB NC NE NF <tspan
						x="12.28" dy="1.2em" class="st3">spegniti! err1 </tspan><tspan x="20.51" dy="1.232em" class="st3">err2 err3</tspan></text>		</g>
		<g id="shape4-6" v:mID="4" v:groupContext="shape" transform="translate(336.596,-255.51)">
			<title>Rectangle.4</title>
			<desc>io errMilling GA GB GC GD GE GF</desc>
			<v:userDefs>
				<v:ud v:nameU="visVersion" v:val="VT0(15):26"/>
			</v:userDefs>
			<v:textBlock v:margins="rect(4,4,4,4)"/>
			<v:textRect cx="47.25" cy="453.95" width="94.51" height="37.5"/>
			<rect x="0" y="435.2" width="94.5" height="37.5" class="st1"/>
			<text x="5.97" y="451.06" class="st2" v:langID="1033"><v:paragraph v:horizAlign="1"/><v:tabList/>io errMilling GA GB GC <tspan
						x="29.67" dy="1.232em" class="st3">GD GE GF</tspan></text>		</g>
		<g id="shape8-10" v:mID="8" v:groupContext="shape" transform="translate(48.2628,-338.76)">
			<title>Ellipse</title>
			<desc>VIN1 errMilling GA GB GC GD GE GF</desc>
			<v:userDefs>
				<v:ud v:nameU="visVersion" v:val="VT0(15):26"/>
			</v:userDefs>
			<v:textBlock v:margins="rect(4,4,4,4)"/>
			<v:textRect cx="43.3125" cy="456.013" width="75.8" height="29.2032"/>
			<path d="M0 456.01 A43.3125 16.6875 0 1 1 86.63 456.01 A43.3125 16.6875 0 1 1 -0 456.01 Z" class="st1"/>
			<text x="15.59" y="447.91" class="st2" v:langID="1033"><v:paragraph v:horizAlign="1"/><v:tabList/>VIN1 errMilling <tspan
						x="12.63" dy="1.2em" class="st3">GA GB GC GD GE </tspan><tspan x="38.41" dy="1.2em" class="st3">GF </tspan> </text>		</g>
		<g id="shape10-15" v:mID="10" v:groupContext="shape" transform="translate(146.246,-407.675)">
			<title>Ellipse.10</title>
			<desc>in1 in2VIN1 in3VIN2 VIN3 VIN4 VIN5 VIN6</desc>
			<v:userDefs>
				<v:ud v:nameU="visVersion" v:val="VT0(15):26"/>
			</v:userDefs>
			<v:textBlock v:margins="rect(4,4,4,4)"/>
			<v:textRect cx="38.8125" cy="453.95" width="67.93" height="32.8125"/>
			<path d="M0 453.95 A38.8125 18.75 0 0 1 77.63 453.95 A38.8125 18.75 0 1 1 0 453.95 Z" class="st1"/>
			<text x="17.57" y="445.85" class="st2" v:langID="1033"><v:paragraph v:horizAlign="1"/><v:tabList/>in1 in2VIN1 <tspan
						x="14.37" dy="1.2em" class="st3">in3VIN2 VIN3 </tspan><tspan x="10.16" dy="1.2em" class="st3">VIN4 VIN5 VIN6</tspan></text>		</g>
		<g id="shape1001-20" v:mID="1001" v:groupContext="shape" v:layerMember="0" transform="translate(493.283,-311.024)">
			<title>Dynamic connector.1001</title>
			<path d="M-8.46 472.7 L-9.12 483.69" class="st4"/>
		</g>
		<g id="shape1000-26" v:mID="1000" v:groupContext="shape" transform="translate(455.621,-311.01)">
			<title>Ellipse.1000</title>
			<desc>In1 in2 in3 spegniti!</desc>
			<v:userDefs>
				<v:ud v:nameU="visVersion" v:val="VT0(15):26"/>
			</v:userDefs>
			<v:textBlock v:margins="rect(4,4,4,4)"/>
			<v:textRect cx="28.125" cy="453.95" width="49.22" height="32.8125"/>
			<path d="M0 453.95 A28.125 18.75 0 0 1 56.25 453.95 A28.125 18.75 0 1 1 -0 453.95 Z" class="st1"/>
			<text x="8.96" y="451.25" class="st2" v:langID="1033"><v:paragraph v:horizAlign="1"/><v:tabList/>In1 in2 in3 <tspan
						x="12.24" dy="1.2em" class="st3">spegniti!</tspan></text>		</g>
		<g id="shape1011-30" v:mID="1011" v:groupContext="shape" transform="translate(63.4503,-116.76)">
			<title>Ellipse.1011</title>
			<desc>GA GB GC GE GF</desc>
			<v:userDefs>
				<v:ud v:nameU="visVersion" v:val="VT0(15):26"/>
			</v:userDefs>
			<v:textBlock v:margins="rect(4,4,4,4)"/>
			<v:textRect cx="28.125" cy="453.95" width="49.22" height="32.8125"/>
			<path d="M0 453.95 A28.125 18.75 0 1 1 56.25 453.95 A28.125 18.75 0 0 1 0 453.95 Z" class="st1"/>
			<text x="10.12" y="451.25" class="st2" v:langID="1033"><v:paragraph v:horizAlign="1"/><v:tabList/>GA GB GC <tspan
						x="17.17" dy="1.2em" class="st3">GE GF</tspan></text>		</g>
		<g id="shape1029-34" v:mID="1029" v:groupContext="shape" transform="translate(399.892,-134.76)">
			<title>Square.1029</title>
			<desc>sommatore4bit registro4bit zeroCostant</desc>
			<v:userDefs>
				<v:ud v:nameU="visVersion" v:val="VT0(15):26"/>
			</v:userDefs>
			<v:textBlock v:margins="rect(4,4,4,4)"/>
			<v:textRect cx="36" cy="436.7" width="72" height="72"/>
			<rect x="0" y="400.7" width="72" height="72" class="st1"/>
			<text x="7.65" y="428.6" class="st2" v:langID="1033"><v:paragraph v:horizAlign="1"/><v:tabList/>sommatore4bit<v:lf/><tspan
						x="14.65" dy="1.2em" class="st3">registro4bit<v:lf/></tspan><tspan x="13.97" dy="1.2em" class="st3">zeroCostant</tspan></text>		</g>
		<g id="shape1035-39" v:mID="1035" v:groupContext="shape" transform="translate(385.871,-18.25)">
			<title>Square.1035</title>
			<desc>sommartore8bit sotTRATTORE6bit registro6bit registro8bit zero...</desc>
			<v:userDefs>
				<v:ud v:nameU="visVersion" v:val="VT0(15):26"/>
			</v:userDefs>
			<v:textBlock v:margins="rect(4,4,4,4)"/>
			<v:textRect cx="43.0103" cy="429.69" width="86.03" height="86.0207"/>
			<rect x="0" y="386.68" width="86.0207" height="86.0207" class="st1"/>
			<text x="13.09" y="405.39" class="st2" v:langID="1033"><v:paragraph v:horizAlign="1"/><v:tabList/>sommartore8bit<v:newlineChar/><tspan
						x="10.94" dy="1.2em" class="st3">sotTRATTORE6bit<v:lf/></tspan><tspan x="21.66" dy="1.2em" class="st3">registro6bit<v:lf/></tspan><tspan
						x="21.66" dy="1.2em" class="st3">registro8bit<v:lf/></tspan><tspan x="20.98" dy="1.2em" class="st3">zeroCostant<v:lf/></tspan><tspan
						x="18.63" dy="1.2em" class="st3">maggiore8bit</tspan></text>		</g>
		<g id="shape1042-47" v:mID="1042" v:groupContext="shape" transform="translate(240.746,-339.51)">
			<title>Triangle.1042</title>
			<desc>FSMD</desc>
			<v:userDefs>
				<v:ud v:nameU="visVersion" v:val="VT0(15):26"/>
			</v:userDefs>
			<v:textBlock v:margins="rect(4,4,4,4)"/>
			<v:textRect cx="28.125" cy="464.45" width="56.26" height="32.5"/>
			<path d="M56.25 472.7 L28.13 423.95 L0 472.7 L56.25 472.7 Z" class="st1"/>
			<text x="11.22" y="468.18" class="st6" v:langID="1033"><v:paragraph v:horizAlign="1"/><v:tabList/>FSMD</text>		</g>
		<g id="shape1044-50" v:mID="1044" v:groupContext="shape" transform="translate(320.058,-405.7)">
			<title>Rectangle.1044</title>
			<desc>ioFSM err1 err2 err3 GA GB GC GD GE GF NA NB NC NE NF</desc>
			<v:userDefs>
				<v:ud v:nameU="visVersion" v:val="VT0(15):26"/>
			</v:userDefs>
			<v:textBlock v:margins="rect(4,4,4,4)"/>
			<v:textRect cx="38.8125" cy="448.325" width="77.63" height="48.75"/>
			<rect x="0" y="423.95" width="77.625" height="48.75" class="st1"/>
			<text x="10.07" y="434.83" class="st2" v:langID="1033"><v:paragraph v:horizAlign="1"/><v:tabList/>ioFSM err1 err2 <tspan
						x="5.51" dy="1.2em" class="st3">err3 GA GB GC GD </tspan><tspan x="8.64" dy="1.2em" class="st3">GE GF NA NB NC </tspan><tspan
						x="27.72" dy="1.2em" class="st3">NE NF</tspan></text>		</g>
		<g id="shape1045-56" v:mID="1045" v:groupContext="shape" v:layerMember="0" transform="translate(185.058,-407.675)">
			<title>Dynamic connector.1045</title>
			<path d="M0 472.7 L0 479.45 L83.81 479.45 L83.81 485.08" class="st4"/>
		</g>
		<g id="shape1046-61" v:mID="1046" v:groupContext="shape" v:layerMember="0" transform="translate(280.246,-368.544)">
			<title>Dynamic connector.1046</title>
			<path d="M0 472.7 L78.63 472.7 L78.63 442.58" class="st4"/>
		</g>
		<g id="shape1048-66" v:mID="1048" v:groupContext="shape" transform="translate(56.0296,-197.273)">
			<title>Triangle.1048</title>
			<desc>STARTER</desc>
			<v:userDefs>
				<v:ud v:nameU="visVersion" v:val="VT0(15):26"/>
			</v:userDefs>
			<v:textBlock v:margins="rect(4,4,4,4)"/>
			<v:textRect cx="36.4811" cy="464.965" width="71.1" height="37.325"/>
			<path d="M71.09 472.7 L32.73 416.71 L0 472.7 L71.09 472.7 Z" class="st1"/>
			<text x="6.22" y="468.69" class="st6" v:langID="1033"><v:paragraph v:horizAlign="1"/><v:tabList/>STARTER</text>		</g>
		<g id="shape1049-69" v:mID="1049" v:groupContext="shape" v:layerMember="0" transform="translate(240.746,-338.479)">
			<title>Dynamic connector.1049</title>
			<path d="M0 471.67 L-98.9 456.78" class="st4"/>
		</g>
		<g id="shape1051-74" v:mID="1051" v:groupContext="shape" v:layerMember="0" transform="translate(104.22,-230.699)">
			<title>Dynamic connector.1051</title>
			<path d="M0 472.7 L2.65 466.37 L2.65 407.2 L33.62 407.2" class="st4"/>
		</g>
		<g id="shape1052-79" v:mID="1052" v:groupContext="shape" v:layerMember="0" transform="translate(99.169,-338.76)">
			<title>Dynamic connector.1052</title>
			<path d="M-7.59 472.7 L-7.59 486.2 L-10.41 486.2 L-10.41 551.16" class="st4"/>
		</g>
		<g id="shape1053-84" v:mID="1053" v:groupContext="shape" v:layerMember="0" transform="translate(218.565,-296.198)">
			<title>Dynamic connector.1053</title>
			<path d="M0 472.7 L32.06 472.7 L32.06 436.43" class="st4"/>
		</g>
		<g id="shape1054-89" v:mID="1054" v:groupContext="shape" transform="translate(455.621,-244.26)">
			<title>Triangle.1054</title>
			<desc>START</desc>
			<v:userDefs>
				<v:ud v:nameU="visVersion" v:val="VT0(15):26"/>
			</v:userDefs>
			<v:textBlock v:margins="rect(4,4,4,4)"/>
			<v:textRect cx="28.125" cy="464.45" width="56.26" height="32.5"/>
			<path d="M56.25 472.7 L28.13 423.95 L0 472.7 L56.25 472.7 Z" class="st1"/>
			<text x="5.84" y="468.18" class="st6" v:langID="1033"><v:paragraph v:horizAlign="1"/><v:tabList/>START</text>		</g>
		<g id="shape1055-92" v:mID="1055" v:groupContext="shape" v:layerMember="0" transform="translate(296.996,-343.635)">
			<title>Dynamic connector.1055</title>
			<path d="M0 476.83 L0 486.58 L151.58 486.58" class="st4"/>
		</g>
		<g id="shape1056-97" v:mID="1056" v:groupContext="shape" v:layerMember="0" transform="translate(383.846,-293.01)">
			<title>Dynamic connector.1056</title>
			<path d="M0 472.7 L0 459.2 L-105.97 459.2 L-105.97 433.99" class="st4"/>
		</g>
		<g id="shape1057-102" v:mID="1057" v:groupContext="shape" v:layerMember="0" transform="translate(455.621,-240.885)">
			<title>Dynamic connector.1057</title>
			<path d="M0 469.33 L-71.78 469.33 L-71.78 465.12" class="st4"/>
		</g>
		<g id="shape1058-107" v:mID="1058" v:groupContext="shape" v:layerMember="0" transform="translate(50.74,-197.273)">
			<title>Dynamic connector.1058</title>
			<path d="M5.29 472.7 L-24.87 472.7 L-24.87 631.96 L5.67 631.96" class="st4"/>
		</g>
		<g id="shape1059-112" v:mID="1059" v:groupContext="shape" v:layerMember="0" transform="translate(50.74,-197.273)">
			<title>Dynamic connector.1059</title>
			<path d="M5.29 472.7 L-24.87 472.7 L-24.87 534.46 L5.67 534.46" class="st4"/>
		</g>
		<g id="shape1060-117" v:mID="1060" v:groupContext="shape" transform="translate(207.521,-134.76)">
			<title>Triangle.1060</title>
			<desc>NA NB NC NE NF Counters</desc>
			<v:userDefs>
				<v:ud v:nameU="visVersion" v:val="VT0(15):26"/>
			</v:userDefs>
			<v:textBlock v:margins="rect(4,4,4,4)"/>
			<v:textRect cx="52.275" cy="444.135" width="104.56" height="86.8693"/>
			<path d="M104.55 472.7 L52.28 382.09 L0 472.7 L104.55 472.7 Z" class="st1"/>
			<text x="36.44" y="433.33" class="st7" v:langID="1033"><v:paragraph v:horizAlign="1"/><v:tabList/>NA NB<v:newlineChar/><tspan
						x="37.04" dy="1.2em" class="st3">NC NE<v:newlineChar/><v:paragraph v:horizAlign="1"/></tspan><tspan
						x="22.19" dy="1.2em" class="st3">NF Counters</tspan></text>		</g>
		<g id="shape1061-122" v:mID="1061" v:groupContext="shape" v:layerMember="0" transform="translate(119.7,-144.135)">
			<title>Dynamic connector.1061</title>
			<path d="M0 481.33 L44.71 481.71 A3 3 0 0 1 50.71 481.76 L80.78 482.02" class="st4"/>
		</g>
		<g id="shape1062-127" v:mID="1062" v:groupContext="shape" transform="translate(207.521,-36.6503)">
			<title>Triangle.1062</title>
			<desc>NA NB NC NE NF Counters</desc>
			<v:userDefs>
				<v:ud v:nameU="visVersion" v:val="VT0(15):26"/>
			</v:userDefs>
			<v:textBlock v:margins="rect(4,4,4,4)"/>
			<v:textRect cx="52.275" cy="444.135" width="104.56" height="86.8693"/>
			<path d="M104.55 472.7 L52.28 382.09 L0 472.7 L104.55 472.7 Z" class="st1"/>
			<text x="36.44" y="433.33" class="st7" v:langID="1033"><v:paragraph v:horizAlign="1"/><v:tabList/>NA NB<v:newlineChar/><tspan
						x="37.04" dy="1.2em" class="st3">NC NE<v:newlineChar/><v:paragraph v:horizAlign="1"/></tspan><tspan
						x="22.19" dy="1.2em" class="st3">NF Counters</tspan></text>		</g>
		<g id="shape1063-132" v:mID="1063" v:groupContext="shape" transform="translate(63.4503,-19.2603)">
			<title>Ellipse.1063</title>
			<desc>vINx vOutx GC GD</desc>
			<v:userDefs>
				<v:ud v:nameU="visVersion" v:val="VT0(15):26"/>
			</v:userDefs>
			<v:textBlock v:margins="rect(4,4,4,4)"/>
			<v:textRect cx="28.125" cy="453.95" width="49.22" height="32.8125"/>
			<path d="M0 453.95 A28.125 18.75 0 1 1 56.25 453.95 A28.125 18.75 0 0 1 0 453.95 Z" class="st1"/>
			<text x="8.26" y="451.25" class="st2" v:langID="1033"><v:paragraph v:horizAlign="1"/><v:tabList/>vINx vOutx <tspan
						x="16.26" dy="1.2em" class="st3">GC GD</tspan></text>		</g>
		<g id="shape1064-136" v:mID="1064" v:groupContext="shape" v:layerMember="0" transform="translate(290.759,-180.231)">
			<title>Dynamic connector.1064</title>
			<path d="M6.68 481.29 L7.04 481.29 L102.09 482.11" class="st8"/>
		</g>
		<g id="shape1065-144" v:mID="1065" v:groupContext="shape" v:layerMember="0" transform="translate(299.835,-50.5603)">
			<title>Dynamic connector.1065</title>
			<path d="M6.62 464.53 L6.98 464.48 L25.74 462 L79 462" class="st8"/>
		</g>
		<g id="shape1066-151" v:mID="1066" v:groupContext="shape" v:layerMember="0" transform="translate(119.7,-46.3303)">
			<title>Dynamic connector.1066</title>
			<path d="M0 481.02 L80.78 482.27" class="st4"/>
		</g>
		<g id="shape1067-156" v:mID="1067" v:groupContext="shape" v:layerMember="0" transform="translate(236.153,-86.2797)">
			<title>Dynamic connector.1067</title>
			<path d="M0 472.7 L-68.74 472.7 L-68.74 400.98" class="st4"/>
		</g>
		<g id="shape1069-161" v:mID="1069" v:groupContext="shape" v:layerMember="0" transform="translate(144.999,-179.669)">
			<title>Dynamic connector.1069</title>
			<path d="M-0.12 472.3 L-17.88 472.3 L-17.88 462.14" class="st4"/>
		</g>
		<g id="shape1068-166" v:mID="1068" v:groupContext="shape" transform="translate(144.877,-165.04)">
			<title>Rectangle.1068</title>
			<desc>TOOerr</desc>
			<v:userDefs>
				<v:ud v:nameU="visVersion" v:val="VT0(15):26"/>
			</v:userDefs>
			<v:textBlock v:margins="rect(4,4,4,4)"/>
			<v:textRect cx="22.5375" cy="457.675" width="45.08" height="30.05"/>
			<rect x="0" y="442.65" width="45.075" height="30.05" class="st1"/>
			<text x="9.01" y="460.38" class="st2" v:langID="1033"><v:paragraph v:horizAlign="1"/><v:tabList/>TOOerr</text>		</g>
		<g id="shape1070-169" v:mID="1070" v:groupContext="shape" transform="translate(162.315,-215.385)">
			<title>Rectangle.1070</title>
			<desc>Nxerr NA NB NC NE NF</desc>
			<v:userDefs>
				<v:ud v:nameU="visVersion" v:val="VT0(15):26"/>
			</v:userDefs>
			<v:textBlock v:margins="rect(4,4,4,4)"/>
			<v:textRect cx="35.5457" cy="457.675" width="71.1" height="30.05"/>
			<rect x="0" y="442.65" width="71.0913" height="30.05" class="st1"/>
			<text x="6.1" y="454.98" class="st2" v:langID="1033"><v:paragraph v:horizAlign="1"/><v:tabList/>Nxerr NA NB NC <tspan
						x="24.45" dy="1.2em" class="st3">NE NF</tspan></text>		</g>
		<g id="shape1071-173" v:mID="1071" v:groupContext="shape" v:layerMember="0" transform="translate(259.796,-218.89)">
			<title>Dynamic connector.1071</title>
			<path d="M0 466.22 L0 461.18 L-19.35 461.18" class="st4"/>
		</g>
		<g id="shape1072-178" v:mID="1072" v:groupContext="shape" v:layerMember="0" transform="translate(162.315,-230.41)">
			<title>Dynamic connector.1072</title>
			<path d="M0 472.7 L-35.19 472.7 L-35.19 498.8" class="st4"/>
		</g>
	</g>
</svg>
