<?xml version="1.0" encoding="UTF-8" standalone="no"?>
<!DOCTYPE svg PUBLIC "-//W3C//DTD SVG 1.1//EN" "http://www.w3.org/Graphics/SVG/1.1/DTD/svg11.dtd">
<!-- Generated by Microsoft Visio, SVG Export flowChart.svg first -->
<svg xmlns="http://www.w3.org/2000/svg" xmlns:xlink="http://www.w3.org/1999/xlink" xmlns:ev="http://www.w3.org/2001/xml-events"
		xmlns:v="http://schemas.microsoft.com/visio/2003/SVGExtensions/" width="8.26772in" height="11.6929in"
		viewBox="0 0 595.276 841.89" xml:space="preserve" color-interpolation-filters="sRGB" class="st9">
	<title>sis_elaborato_VR4XXXXX_VR414014</title>
	<v:documentProperties v:langID="1033" v:viewMarkup="false">
		<v:userDefs>
			<v:ud v:nameU="msvSubprocessMaster" v:prompt="" v:val="VT4(Rectangle)"/>
			<v:ud v:nameU="msvNoAutoConnect" v:val="VT0(1):26"/>
		</v:userDefs>
	</v:documentProperties>

	<style type="text/css">
	<![CDATA[
		.st1 {fill:#4672c4;stroke:#c7c8c8;stroke-width:0.25}
		.st2 {fill:#feffff;font-family:Calibri;font-size:0.75em}
		.st3 {font-size:1em}
		.st4 {marker-end:url(#mrkr4-25);stroke:#4672c4;stroke-linecap:round;stroke-linejoin:round;stroke-width:1}
		.st5 {fill:#4672c4;fill-opacity:1;stroke:#4672c4;stroke-opacity:1;stroke-width:0.28409090909091}
		.st6 {fill:#feffff;font-family:OpenDyslexic;font-size:1.00001em}
		.st7 {fill:#feffff;font-family:Calibri;font-size:1.00001em}
		.st8 {marker-end:url(#mrkr4-25);marker-start:url(#mrkr4-142);stroke:#4672c4;stroke-linecap:round;stroke-linejoin:round;stroke-width:1}
		.st9 {fill:none;fill-rule:evenodd;font-size:12px;overflow:visible;stroke-linecap:square;stroke-miterlimit:3}
	]]>
	</style>

	<defs id="Markers">
		<g id="lend4">
			<path d="M 2 1 L 0 0 L 2 -1 L 2 1 " style="stroke:none"/>
		</g>
		<marker id="mrkr4-25" class="st5" v:arrowType="4" v:arrowSize="2" v:setback="7.04" refX="-7.04" orient="auto"
				markerUnits="strokeWidth" overflow="visible">
			<use xlink:href="#lend4" transform="scale(-3.52,-3.52) "/>
		</marker>
		<marker id="mrkr4-142" class="st5" v:arrowType="4" v:arrowSize="2" v:setback="6.68" refX="6.68" orient="auto"
				markerUnits="strokeWidth" overflow="visible">
			<use xlink:href="#lend4" transform="scale(3.52) "/>
		</marker>
	</defs>
	<g v:mID="0" v:index="1" v:groupContext="foregroundPage">
		<v:userDefs>
			<v:ud v:nameU="msvThemeOrder" v:val="VT0(0):26"/>
		</v:userDefs>
		<title>first</title>
		<v:pageProperties v:drawingScale="1" v:pageScale="1" v:drawingUnits="0" v:shadowOffsetX="9" v:shadowOffsetY="-9"/>
		<v:layer v:name="Connector" v:index="0"/>
		<g id="shape3-1" v:mID="3" v:groupContext="shape" transform="translate(164.006,-648.375)">
			<title>Rectangle.3</title>
			<desc>NA NB NC NE NF spegniti! err1 err2 err3</desc>
			<v:userDefs>
				<v:ud v:nameU="visVersion" v:val="VT0(15):26"/>
			</v:userDefs>
			<v:textBlock v:margins="rect(4,4,4,4)"/>
			<v:textRect cx="36.8437" cy="817.327" width="73.69" height="49.125"/>
			<rect x="0" y="792.765" width="73.6875" height="49.125" class="st1"/>
			<text x="6.53" y="809.04" class="st2" v:langID="1033"><v:paragraph v:horizAlign="1"/><v:tabList/>NA NB NC NE NF <tspan
						x="12.28" dy="1.2em" class="st3">spegniti! err1 </tspan><tspan x="20.51" dy="1.232em" class="st3">err2 err3</tspan></text>		</g>
		<g id="shape4-6" v:mID="4" v:groupContext="shape" transform="translate(355.725,-632.25)">
			<title>Rectangle.4</title>
			<desc>io errMilling GA GB GC GD GE GF</desc>
			<v:userDefs>
				<v:ud v:nameU="visVersion" v:val="VT0(15):26"/>
			</v:userDefs>
			<v:textBlock v:margins="rect(4,4,4,4)"/>
			<v:textRect cx="47.25" cy="823.14" width="94.51" height="37.5"/>
			<rect x="0" y="804.39" width="94.5" height="37.5" class="st1"/>
			<text x="5.97" y="820.25" class="st2" v:langID="1033"><v:paragraph v:horizAlign="1"/><v:tabList/>io errMilling GA GB GC <tspan
						x="29.67" dy="1.232em" class="st3">GD GE GF</tspan></text>		</g>
		<g id="shape8-10" v:mID="8" v:groupContext="shape" transform="translate(67.3918,-715.5)">
			<title>Ellipse</title>
			<desc>VIN1 errMilling GA GB GC GD GE GF</desc>
			<v:userDefs>
				<v:ud v:nameU="visVersion" v:val="VT0(15):26"/>
			</v:userDefs>
			<v:textBlock v:margins="rect(4,4,4,4)"/>
			<v:textRect cx="43.3125" cy="825.202" width="75.8" height="29.2032"/>
			<path d="M0 825.2 A43.3125 16.6875 0 1 1 86.63 825.2 A43.3125 16.6875 0 1 1 -0 825.2 Z" class="st1"/>
			<text x="15.59" y="817.1" class="st2" v:langID="1033"><v:paragraph v:horizAlign="1"/><v:tabList/>VIN1 errMilling <tspan
						x="12.63" dy="1.2em" class="st3">GA GB GC GD GE </tspan><tspan x="38.41" dy="1.2em" class="st3">GF </tspan> </text>		</g>
		<g id="shape10-15" v:mID="10" v:groupContext="shape" transform="translate(165.375,-784.415)">
			<title>Ellipse.10</title>
			<desc>in1 in2VIN1 in3VIN2 VIN3 VIN4 VIN5 VIN6</desc>
			<v:userDefs>
				<v:ud v:nameU="visVersion" v:val="VT0(15):26"/>
			</v:userDefs>
			<v:textBlock v:margins="rect(4,4,4,4)"/>
			<v:textRect cx="38.8125" cy="823.14" width="67.93" height="32.8125"/>
			<path d="M0 823.14 A38.8125 18.75 0 0 1 77.63 823.14 A38.8125 18.75 0 1 1 0 823.14 Z" class="st1"/>
			<text x="17.57" y="815.04" class="st2" v:langID="1033"><v:paragraph v:horizAlign="1"/><v:tabList/>in1 in2VIN1 <tspan
						x="14.37" dy="1.2em" class="st3">in3VIN2 VIN3 </tspan><tspan x="10.16" dy="1.2em" class="st3">VIN4 VIN5 VIN6</tspan></text>		</g>
		<g id="shape1001-20" v:mID="1001" v:groupContext="shape" v:layerMember="0" transform="translate(512.412,-687.764)">
			<title>Dynamic connector.1001</title>
			<path d="M-8.46 841.89 L-9.12 852.88" class="st4"/>
		</g>
		<g id="shape1000-26" v:mID="1000" v:groupContext="shape" transform="translate(474.75,-687.75)">
			<title>Ellipse.1000</title>
			<desc>In1 in2 in3 spegniti!</desc>
			<v:userDefs>
				<v:ud v:nameU="visVersion" v:val="VT0(15):26"/>
			</v:userDefs>
			<v:textBlock v:margins="rect(4,4,4,4)"/>
			<v:textRect cx="28.125" cy="823.14" width="49.22" height="32.8125"/>
			<path d="M0 823.14 A28.125 18.75 0 0 1 56.25 823.14 A28.125 18.75 0 1 1 -0 823.14 Z" class="st1"/>
			<text x="8.96" y="820.44" class="st2" v:langID="1033"><v:paragraph v:horizAlign="1"/><v:tabList/>In1 in2 in3 <tspan
						x="12.24" dy="1.2em" class="st3">spegniti!</tspan></text>		</g>
		<g id="shape1011-30" v:mID="1011" v:groupContext="shape" transform="translate(82.5793,-493.5)">
			<title>Ellipse.1011</title>
			<desc>GA GB GC GE GF</desc>
			<v:userDefs>
				<v:ud v:nameU="visVersion" v:val="VT0(15):26"/>
			</v:userDefs>
			<v:textBlock v:margins="rect(4,4,4,4)"/>
			<v:textRect cx="28.125" cy="823.14" width="49.22" height="32.8125"/>
			<path d="M0 823.14 A28.125 18.75 0 1 1 56.25 823.14 A28.125 18.75 0 0 1 0 823.14 Z" class="st1"/>
			<text x="10.12" y="820.44" class="st2" v:langID="1033"><v:paragraph v:horizAlign="1"/><v:tabList/>GA GB GC <tspan
						x="17.17" dy="1.2em" class="st3">GE GF</tspan></text>		</g>
		<g id="shape1029-34" v:mID="1029" v:groupContext="shape" transform="translate(419.021,-511.5)">
			<title>Square.1029</title>
			<desc>sommatore4bit registro4bit zeroCostant</desc>
			<v:userDefs>
				<v:ud v:nameU="visVersion" v:val="VT0(15):26"/>
			</v:userDefs>
			<v:textBlock v:margins="rect(4,4,4,4)"/>
			<v:textRect cx="36" cy="805.89" width="72" height="72"/>
			<rect x="0" y="769.89" width="72" height="72" class="st1"/>
			<text x="7.65" y="797.79" class="st2" v:langID="1033"><v:paragraph v:horizAlign="1"/><v:tabList/>sommatore4bit<v:lf/><tspan
						x="14.65" dy="1.2em" class="st3">registro4bit<v:lf/></tspan><tspan x="13.97" dy="1.2em" class="st3">zeroCostant</tspan></text>		</g>
		<g id="shape1035-39" v:mID="1035" v:groupContext="shape" transform="translate(405,-394.99)">
			<title>Square.1035</title>
			<desc>sommartore8bit sotTRATTORE6bit registro6bit registro8bit zero...</desc>
			<v:userDefs>
				<v:ud v:nameU="visVersion" v:val="VT0(15):26"/>
			</v:userDefs>
			<v:textBlock v:margins="rect(4,4,4,4)"/>
			<v:textRect cx="43.0103" cy="798.879" width="86.03" height="86.0207"/>
			<rect x="0" y="755.869" width="86.0207" height="86.0207" class="st1"/>
			<text x="13.09" y="774.58" class="st2" v:langID="1033"><v:paragraph v:horizAlign="1"/><v:tabList/>sommartore8bit<v:newlineChar/><tspan
						x="10.94" dy="1.2em" class="st3">sotTRATTORE6bit<v:lf/></tspan><tspan x="21.66" dy="1.2em" class="st3">registro6bit<v:lf/></tspan><tspan
						x="21.66" dy="1.2em" class="st3">registro8bit<v:lf/></tspan><tspan x="20.98" dy="1.2em" class="st3">zeroCostant<v:lf/></tspan><tspan
						x="18.63" dy="1.2em" class="st3">maggiore8bit</tspan></text>		</g>
		<g id="shape1042-47" v:mID="1042" v:groupContext="shape" transform="translate(259.875,-716.25)">
			<title>Triangle.1042</title>
			<desc>FSMD</desc>
			<v:userDefs>
				<v:ud v:nameU="visVersion" v:val="VT0(15):26"/>
			</v:userDefs>
			<v:textBlock v:margins="rect(4,4,4,4)"/>
			<v:textRect cx="28.125" cy="833.64" width="56.26" height="32.5"/>
			<path d="M56.25 841.89 L28.13 793.14 L0 841.89 L56.25 841.89 Z" class="st1"/>
			<text x="11.22" y="837.37" class="st6" v:langID="1033"><v:paragraph v:horizAlign="1"/><v:tabList/>FSMD</text>		</g>
		<g id="shape1044-50" v:mID="1044" v:groupContext="shape" transform="translate(339.187,-782.44)">
			<title>Rectangle.1044</title>
			<desc>ioFSM err1 err2 err3 GA GB GC GD GE GF NA NB NC NE NF</desc>
			<v:userDefs>
				<v:ud v:nameU="visVersion" v:val="VT0(15):26"/>
			</v:userDefs>
			<v:textBlock v:margins="rect(4,4,4,4)"/>
			<v:textRect cx="38.8125" cy="817.515" width="77.63" height="48.75"/>
			<rect x="0" y="793.14" width="77.625" height="48.75" class="st1"/>
			<text x="10.07" y="804.01" class="st2" v:langID="1033"><v:paragraph v:horizAlign="1"/><v:tabList/>ioFSM err1 err2 <tspan
						x="5.51" dy="1.2em" class="st3">err3 GA GB GC GD </tspan><tspan x="8.64" dy="1.2em" class="st3">GE GF NA NB NC </tspan><tspan
						x="27.72" dy="1.2em" class="st3">NE NF</tspan></text>		</g>
		<g id="shape1045-56" v:mID="1045" v:groupContext="shape" v:layerMember="0" transform="translate(204.187,-784.415)">
			<title>Dynamic connector.1045</title>
			<path d="M0 841.89 L0 848.64 L83.81 848.64 L83.81 854.26" class="st4"/>
		</g>
		<g id="shape1046-61" v:mID="1046" v:groupContext="shape" v:layerMember="0" transform="translate(299.375,-745.284)">
			<title>Dynamic connector.1046</title>
			<path d="M0 841.89 L78.63 841.89 L78.63 811.77" class="st4"/>
		</g>
		<g id="shape1048-66" v:mID="1048" v:groupContext="shape" transform="translate(75.1587,-574.013)">
			<title>Triangle.1048</title>
			<desc>STARTER</desc>
			<v:userDefs>
				<v:ud v:nameU="visVersion" v:val="VT0(15):26"/>
			</v:userDefs>
			<v:textBlock v:margins="rect(4,4,4,4)"/>
			<v:textRect cx="36.4811" cy="834.155" width="71.1" height="37.325"/>
			<path d="M71.09 841.89 L32.73 785.9 L0 841.89 L71.09 841.89 Z" class="st1"/>
			<text x="6.22" y="837.88" class="st6" v:langID="1033"><v:paragraph v:horizAlign="1"/><v:tabList/>STARTER</text>		</g>
		<g id="shape1049-69" v:mID="1049" v:groupContext="shape" v:layerMember="0" transform="translate(259.875,-715.219)">
			<title>Dynamic connector.1049</title>
			<path d="M0 840.86 L-98.9 825.97" class="st4"/>
		</g>
		<g id="shape1051-74" v:mID="1051" v:groupContext="shape" v:layerMember="0" transform="translate(123.349,-607.438)">
			<title>Dynamic connector.1051</title>
			<path d="M0 841.89 L2.65 835.56 L2.65 776.39 L33.62 776.39" class="st4"/>
		</g>
		<g id="shape1052-79" v:mID="1052" v:groupContext="shape" v:layerMember="0" transform="translate(118.298,-715.5)">
			<title>Dynamic connector.1052</title>
			<path d="M-7.59 841.89 L-7.59 855.39 L-10.41 855.39 L-10.41 920.35" class="st4"/>
		</g>
		<g id="shape1053-84" v:mID="1053" v:groupContext="shape" v:layerMember="0" transform="translate(237.694,-672.938)">
			<title>Dynamic connector.1053</title>
			<path d="M0 841.89 L32.06 841.89 L32.06 805.62" class="st4"/>
		</g>
		<g id="shape1054-89" v:mID="1054" v:groupContext="shape" transform="translate(474.75,-621)">
			<title>Triangle.1054</title>
			<desc>START</desc>
			<v:userDefs>
				<v:ud v:nameU="visVersion" v:val="VT0(15):26"/>
			</v:userDefs>
			<v:textBlock v:margins="rect(4,4,4,4)"/>
			<v:textRect cx="28.125" cy="833.64" width="56.26" height="32.5"/>
			<path d="M56.25 841.89 L28.13 793.14 L0 841.89 L56.25 841.89 Z" class="st1"/>
			<text x="5.84" y="837.37" class="st6" v:langID="1033"><v:paragraph v:horizAlign="1"/><v:tabList/>START</text>		</g>
		<g id="shape1055-92" v:mID="1055" v:groupContext="shape" v:layerMember="0" transform="translate(316.125,-720.375)">
			<title>Dynamic connector.1055</title>
			<path d="M0 846.01 L0 855.76 L151.58 855.76" class="st4"/>
		</g>
		<g id="shape1056-97" v:mID="1056" v:groupContext="shape" v:layerMember="0" transform="translate(402.975,-669.75)">
			<title>Dynamic connector.1056</title>
			<path d="M0 841.89 L0 828.39 L-105.97 828.39 L-105.97 803.18" class="st4"/>
		</g>
		<g id="shape1057-102" v:mID="1057" v:groupContext="shape" v:layerMember="0" transform="translate(474.75,-617.625)">
			<title>Dynamic connector.1057</title>
			<path d="M0 838.51 L-71.78 838.51 L-71.78 834.3" class="st4"/>
		</g>
		<g id="shape1058-107" v:mID="1058" v:groupContext="shape" v:layerMember="0" transform="translate(69.869,-574.013)">
			<title>Dynamic connector.1058</title>
			<path d="M5.29 841.89 L-24.87 841.89 L-24.87 1001.15 L5.67 1001.15" class="st4"/>
		</g>
		<g id="shape1059-112" v:mID="1059" v:groupContext="shape" v:layerMember="0" transform="translate(69.869,-574.013)">
			<title>Dynamic connector.1059</title>
			<path d="M5.29 841.89 L-24.87 841.89 L-24.87 903.65 L5.67 903.65" class="st4"/>
		</g>
		<g id="shape1060-117" v:mID="1060" v:groupContext="shape" transform="translate(226.65,-511.5)">
			<title>Triangle.1060</title>
			<desc>NA NB NC NE NF Counters</desc>
			<v:userDefs>
				<v:ud v:nameU="visVersion" v:val="VT0(15):26"/>
			</v:userDefs>
			<v:textBlock v:margins="rect(4,4,4,4)"/>
			<v:textRect cx="52.275" cy="813.324" width="104.56" height="86.8693"/>
			<path d="M104.55 841.89 L52.28 751.28 L0 841.89 L104.55 841.89 Z" class="st1"/>
			<text x="36.44" y="802.52" class="st7" v:langID="1033"><v:paragraph v:horizAlign="1"/><v:tabList/>NA NB<v:newlineChar/><tspan
						x="37.04" dy="1.2em" class="st3">NC NE<v:newlineChar/><v:paragraph v:horizAlign="1"/></tspan><tspan
						x="22.19" dy="1.2em" class="st3">NF Counters</tspan></text>		</g>
		<g id="shape1061-122" v:mID="1061" v:groupContext="shape" v:layerMember="0" transform="translate(138.829,-520.875)">
			<title>Dynamic connector.1061</title>
			<path d="M0 850.51 L44.71 850.9 A3 3 0 0 1 50.71 850.95 L80.78 851.2" class="st4"/>
		</g>
		<g id="shape1062-127" v:mID="1062" v:groupContext="shape" transform="translate(226.65,-413.39)">
			<title>Triangle.1062</title>
			<desc>NA NB NC NE NF Counters</desc>
			<v:userDefs>
				<v:ud v:nameU="visVersion" v:val="VT0(15):26"/>
			</v:userDefs>
			<v:textBlock v:margins="rect(4,4,4,4)"/>
			<v:textRect cx="52.275" cy="813.324" width="104.56" height="86.8693"/>
			<path d="M104.55 841.89 L52.28 751.28 L0 841.89 L104.55 841.89 Z" class="st1"/>
			<text x="36.44" y="802.52" class="st7" v:langID="1033"><v:paragraph v:horizAlign="1"/><v:tabList/>NA NB<v:newlineChar/><tspan
						x="37.04" dy="1.2em" class="st3">NC NE<v:newlineChar/><v:paragraph v:horizAlign="1"/></tspan><tspan
						x="22.19" dy="1.2em" class="st3">NF Counters</tspan></text>		</g>
		<g id="shape1063-132" v:mID="1063" v:groupContext="shape" transform="translate(82.5793,-396)">
			<title>Ellipse.1063</title>
			<desc>vINx vOutx GC GD</desc>
			<v:userDefs>
				<v:ud v:nameU="visVersion" v:val="VT0(15):26"/>
			</v:userDefs>
			<v:textBlock v:margins="rect(4,4,4,4)"/>
			<v:textRect cx="28.125" cy="823.14" width="49.22" height="32.8125"/>
			<path d="M0 823.14 A28.125 18.75 0 1 1 56.25 823.14 A28.125 18.75 0 0 1 0 823.14 Z" class="st1"/>
			<text x="8.26" y="820.44" class="st2" v:langID="1033"><v:paragraph v:horizAlign="1"/><v:tabList/>vINx vOutx <tspan
						x="16.26" dy="1.2em" class="st3">GC GD</tspan></text>		</g>
		<g id="shape1064-136" v:mID="1064" v:groupContext="shape" v:layerMember="0" transform="translate(309.888,-556.97)">
			<title>Dynamic connector.1064</title>
			<path d="M6.68 850.48 L7.04 850.48 L102.09 851.3" class="st8"/>
		</g>
		<g id="shape1065-144" v:mID="1065" v:groupContext="shape" v:layerMember="0" transform="translate(318.964,-427.3)">
			<title>Dynamic connector.1065</title>
			<path d="M6.62 833.71 L6.98 833.67 L25.74 831.19 L79 831.19" class="st8"/>
		</g>
		<g id="shape1066-151" v:mID="1066" v:groupContext="shape" v:layerMember="0" transform="translate(138.829,-423.07)">
			<title>Dynamic connector.1066</title>
			<path d="M0 850.21 L80.78 851.46" class="st4"/>
		</g>
		<g id="shape1067-156" v:mID="1067" v:groupContext="shape" v:layerMember="0" transform="translate(255.282,-463.019)">
			<title>Dynamic connector.1067</title>
			<path d="M0 841.89 L-68.74 841.89 L-68.74 770.17" class="st4"/>
		</g>
		<g id="shape1069-161" v:mID="1069" v:groupContext="shape" v:layerMember="0" transform="translate(164.128,-556.409)">
			<title>Dynamic connector.1069</title>
			<path d="M-0.12 841.49 L-17.88 841.49 L-17.88 831.33" class="st4"/>
		</g>
		<g id="shape1068-166" v:mID="1068" v:groupContext="shape" transform="translate(164.006,-541.78)">
			<title>Rectangle.1068</title>
			<desc>TOOerr</desc>
			<v:userDefs>
				<v:ud v:nameU="visVersion" v:val="VT0(15):26"/>
			</v:userDefs>
			<v:textBlock v:margins="rect(4,4,4,4)"/>
			<v:textRect cx="22.5375" cy="826.865" width="45.08" height="30.05"/>
			<rect x="0" y="811.84" width="45.075" height="30.05" class="st1"/>
			<text x="9.01" y="829.56" class="st2" v:langID="1033"><v:paragraph v:horizAlign="1"/><v:tabList/>TOOerr</text>		</g>
		<g id="shape1070-169" v:mID="1070" v:groupContext="shape" transform="translate(181.444,-592.125)">
			<title>Rectangle.1070</title>
			<desc>Nxerr NA NB NC NE NF</desc>
			<v:userDefs>
				<v:ud v:nameU="visVersion" v:val="VT0(15):26"/>
			</v:userDefs>
			<v:textBlock v:margins="rect(4,4,4,4)"/>
			<v:textRect cx="35.5457" cy="826.865" width="71.1" height="30.05"/>
			<rect x="0" y="811.84" width="71.0913" height="30.05" class="st1"/>
			<text x="6.1" y="824.16" class="st2" v:langID="1033"><v:paragraph v:horizAlign="1"/><v:tabList/>Nxerr NA NB NC <tspan
						x="24.45" dy="1.2em" class="st3">NE NF</tspan></text>		</g>
		<g id="shape1071-173" v:mID="1071" v:groupContext="shape" v:layerMember="0" transform="translate(278.925,-595.63)">
			<title>Dynamic connector.1071</title>
			<path d="M0 835.41 L0 830.37 L-19.35 830.37" class="st4"/>
		</g>
		<g id="shape1072-178" v:mID="1072" v:groupContext="shape" v:layerMember="0" transform="translate(181.444,-607.15)">
			<title>Dynamic connector.1072</title>
			<path d="M0 841.89 L-35.19 841.89 L-35.19 867.99" class="st4"/>
		</g>
	</g>
</svg>
