<?xml version="1.0" encoding="UTF-8" standalone="no"?>
<!DOCTYPE svg PUBLIC "-//W3C//DTD SVG 1.1//EN" "http://www.w3.org/Graphics/SVG/1.1/DTD/svg11.dtd">
<!-- Generated by Microsoft Visio, SVG Export stgChart.svg Page-1 -->
<svg xmlns="http://www.w3.org/2000/svg" xmlns:xlink="http://www.w3.org/1999/xlink" xmlns:ev="http://www.w3.org/2001/xml-events"
		xmlns:v="http://schemas.microsoft.com/visio/2003/SVGExtensions/" width="8.26772in" height="11.6929in"
		viewBox="0 0 595.276 841.89" xml:space="preserve" color-interpolation-filters="sRGB" class="st12">
	<title>stg milling</title>
	<v:documentProperties v:langID="1033" v:metric="true" v:viewMarkup="false">
		<v:userDefs>
			<v:ud v:nameU="msvSubprocessMaster" v:prompt="" v:val="VT4(Rectangle)"/>
			<v:ud v:nameU="msvNoAutoConnect" v:val="VT0(1):26"/>
		</v:userDefs>
	</v:documentProperties>

	<style type="text/css">
	<![CDATA[
		.st1 {fill:#4672c4;stroke:#c7c8c8;stroke-width:0.25}
		.st2 {fill:#feffff;font-family:Calibri;font-size:0.666664em}
		.st3 {font-size:1em}
		.st4 {marker-end:url(#mrkr4-13);stroke:#4672c4;stroke-linecap:round;stroke-linejoin:round;stroke-width:1}
		.st5 {fill:#4672c4;fill-opacity:1;stroke:#4672c4;stroke-opacity:1;stroke-width:0.28409090909091}
		.st6 {marker-end:url(#mrkr4-19);stroke:#4672c4;stroke-linecap:round;stroke-linejoin:round;stroke-width:1}
		.st7 {fill:#ffffff;stroke:none;stroke-linecap:butt}
		.st8 {fill:#3c63ac;font-family:Calibri;font-size:0.666664em}
		.st9 {fill:#8ea9db;stroke:#c7c8c8;stroke-width:0.25}
		.st10 {fill:#3359a2;stroke:#c7c8c8;stroke-width:0.25}
		.st11 {fill:#ffffff;stroke:none;stroke-linecap:butt;stroke-width:7.2}
		.st12 {fill:none;fill-rule:evenodd;font-size:12px;overflow:visible;stroke-linecap:square;stroke-miterlimit:3}
	]]>
	</style>

	<defs id="Markers">
		<g id="lend4">
			<path d="M 2 1 L 0 0 L 2 -1 L 2 1 " style="stroke:none"/>
		</g>
		<marker id="mrkr4-13" class="st5" v:arrowType="4" v:arrowSize="2" v:setback="7.04" refX="-7.04" orient="auto"
				markerUnits="strokeWidth" overflow="visible">
			<use xlink:href="#lend4" transform="scale(-3.52,-3.52) "/>
		</marker>
		<marker id="mrkr4-19" class="st5" v:arrowType="4" v:arrowSize="2" v:setback="6.68" refX="-6.68" orient="auto"
				markerUnits="strokeWidth" overflow="visible">
			<use xlink:href="#lend4" transform="scale(-3.52,-3.52) "/>
		</marker>
	</defs>
	<g v:mID="0" v:index="1" v:groupContext="foregroundPage">
		<v:userDefs>
			<v:ud v:nameU="msvThemeOrder" v:val="VT0(0):26"/>
		</v:userDefs>
		<title>Page-1</title>
		<v:pageProperties v:drawingScale="0.0393701" v:pageScale="0.0393701" v:drawingUnits="24" v:shadowOffsetX="8.50394"
				v:shadowOffsetY="-8.50394"/>
		<v:layer v:name="Connector" v:index="0"/>
		<g id="shape1-1" v:mID="1" v:groupContext="shape" transform="translate(242.213,-765.818)">
			<title>Rectangle</title>
			<desc>FSMD.blif</desc>
			<v:userDefs>
				<v:ud v:nameU="visVersion" v:val="VT0(15):26"/>
			</v:userDefs>
			<v:textBlock v:margins="rect(4,4,4,4)" v:tabSpace="42.5197"/>
			<v:textRect cx="38.7145" cy="812.854" width="77.43" height="58.0717"/>
			<rect x="0" y="783.818" width="77.4289" height="58.0717" class="st1"/>
			<text x="22.99" y="815.25" class="st2" v:langID="1033"><v:paragraph v:horizAlign="1"/><v:tabList/>FSMD.blif  </text>		</g>
		<g id="shape2-4" v:mID="2" v:groupContext="shape" transform="translate(232.534,-686.776)">
			<title>Ellipse</title>
			<desc>S start</desc>
			<v:userDefs>
				<v:ud v:nameU="visVersion" v:val="VT0(15):26"/>
			</v:userDefs>
			<v:textBlock v:margins="rect(4,4,4,4)" v:tabSpace="42.5197"/>
			<v:textRect cx="48.3931" cy="809.628" width="84.69" height="56.4586"/>
			<path d="M0 809.63 A48.3931 32.262 0 1 1 96.79 809.63 A48.3931 32.262 0 1 1 0 809.63 Z" class="st1"/>
			<text x="46.56" y="807.23" class="st2" v:langID="1033"><v:paragraph v:horizAlign="1"/><v:tabList/>S<v:lf/><tspan
						x="40.84" dy="1.2em" class="st3">start</tspan></text>		</g>
		<g id="shape4-8" v:mID="4" v:groupContext="shape" v:layerMember="0" transform="translate(273.841,-765.818)">
			<title>Dynamic connector</title>
			<path d="M7.09 841.89 C7.09 843.75 7.09 846.57 7.09 849.37" class="st4"/>
		</g>
		<g id="shape5-14" v:mID="5" v:groupContext="shape" v:layerMember="0" transform="translate(280.927,-686.776)">
			<title>Dynamic connector.5</title>
			<desc>0------/000000</desc>
			<v:textBlock v:margins="rect(4,4,4,4)" v:tabSpace="42.5197"/>
			<v:textRect cx="83.832" cy="849.93" width="55.99" height="17.6036"/>
			<path d="M0 841.89 C49.82 888.2 85.6 865.79 92.63 849.28 C98.9 834.54 82.25 824.51 54.85 812.43 L54.52 812.29"
					class="st6"/>
			<rect v:rectContext="textBkgnd" x="60.7481" y="845.13" width="46.1681" height="9.59985" class="st7"/>
			<text x="60.75" y="852.33" class="st8" v:langID="1033"><v:paragraph v:horizAlign="1"/><v:tabList/>0------/000000</text>		</g>
		<g id="shape6-22" v:mID="6" v:groupContext="shape" transform="translate(232.534,-558.728)">
			<title>Ellipse.6</title>
			<desc>B before control</desc>
			<v:userDefs>
				<v:ud v:nameU="visVersion" v:val="VT0(15):26"/>
			</v:userDefs>
			<v:textBlock v:margins="rect(4,4,4,4)" v:tabSpace="42.5197"/>
			<v:textRect cx="48.3931" cy="809.628" width="84.69" height="56.4586"/>
			<path d="M0 809.63 A48.3931 32.262 0 1 1 96.79 809.63 A48.3931 32.262 0 1 1 0 809.63 Z" class="st1"/>
			<text x="46.22" y="807.23" class="st2" v:langID="1033"><v:paragraph v:horizAlign="1"/><v:tabList/>B<v:lf/><tspan
						x="25.02" dy="1.2em" class="st3">before control</tspan></text>		</g>
		<g id="shape7-26" v:mID="7" v:groupContext="shape" v:layerMember="0" transform="translate(273.841,-686.776)">
			<title>Dynamic connector.7</title>
			<desc>111----/1100000</desc>
			<v:textBlock v:margins="rect(4,4,4,4)" v:tabSpace="42.5197"/>
			<v:textRect cx="7.08661" cy="873.652" width="63.25" height="17.6036"/>
			<path d="M7.09 841.89 C7.09 855.68 7.09 881.43 7.09 898.37" class="st4"/>
			<rect v:rectContext="textBkgnd" x="-19.6304" y="868.852" width="53.4342" height="9.59985" class="st7"/>
			<text x="-19.63" y="876.05" class="st8" v:langID="1033"><v:paragraph v:horizAlign="1"/><v:tabList/>111----/1100000</text>		</g>
		<g id="group9-33" transform="translate(18,-744.538)" v:mID="9" v:groupContext="group">
			<v:userDefs>
				<v:ud v:nameU="visVersion" v:prompt="" v:val="VT0(15):26"/>
			</v:userDefs>
			<title>Cube</title>
			<desc>Legend in1 in2 in3 in4 in5 in6 in7 io GA GB GC GD GE GF</desc>
			<g id="shape10-34" v:mID="10" v:groupContext="shape">
				<title>Sheet.10</title>
				<v:userDefs>
					<v:ud v:nameU="ControlHeight" v:prompt="" v:val="VT0(0.94488188976378):24"/>
					<v:ud v:nameU="FillForegnd" v:prompt="" v:val="VT0(1):26"/>
					<v:ud v:nameU="ControlHeight" v:prompt="" v:val="VT0(0.97809435779094):1"/>
					<v:ud v:nameU="FillForegnd" v:prompt="" v:val="VT5(#4672c4)"/>
				</v:userDefs>
				<path d="M0 771.47 L96.87 771.47 L105.8 762.54 L8.93 762.54 L0 771.47 Z" class="st9"/>
			</g>
			<g id="shape11-36" v:mID="11" v:groupContext="shape">
				<title>Sheet.11</title>
				<v:userDefs>
					<v:ud v:nameU="ControlHeight" v:prompt="" v:val="VT0(0.94488188976378):24"/>
					<v:ud v:nameU="FillForegnd" v:prompt="" v:val="VT0(1):26"/>
					<v:ud v:nameU="ControlHeight" v:prompt="" v:val="VT0(0.97809435779094):1"/>
					<v:ud v:nameU="FillForegnd" v:prompt="" v:val="VT5(#4672c4)"/>
				</v:userDefs>
				<path d="M96.87 841.89 L105.8 832.96 L105.8 762.54 L96.87 771.47 L96.87 841.89 Z" class="st10"/>
			</g>
			<g id="shape9-38" v:mID="9" v:groupContext="groupContent">
				<v:textBlock v:margins="rect(4,4,4,4)" v:tabSpace="42.5197"/>
				<v:textRect cx="48.4367" cy="806.678" width="96.88" height="70.4228"/>
				<rect x="0" y="771.467" width="96.8734" height="70.4228" class="st1"/>
				<text x="36.69" y="799.48" class="st2" v:langID="1033"><v:paragraph v:horizAlign="1"/><v:tabList/>Legend<v:lf/><tspan
							x="7.68" dy="1.2em" class="st3">in1 in2 in3 in4 in5 in6 in7<v:lf/></tspan><tspan x="11.97" dy="1.2em"
							class="st3">io GA GB GC GD GE GF</tspan></text>			</g>
		</g>
		<g id="shape12-43" v:mID="12" v:groupContext="shape" v:layerMember="0" transform="translate(225.447,-590.99)">
			<title>Dynamic connector.12</title>
			<desc>0------/0000000</desc>
			<v:textBlock v:margins="rect(4,4,4,4)" v:tabSpace="42.5197"/>
			<v:textRect cx="-50.6095" cy="772.569" width="60.04" height="17.6036"/>
			<path d="M7.09 841.89 C-30.77 834.93 -44.31 805.29 -44.92 780.56 C-45.55 755.04 -32.41 734.76 0.81 717.04 L1.14 716.88"
					class="st6"/>
			<rect v:rectContext="textBkgnd" x="-75.7209" y="767.769" width="50.2229" height="9.59985" class="st7"/>
			<text x="-75.72" y="774.97" class="st8" v:langID="1033"><v:paragraph v:horizAlign="1"/><v:tabList/>0------/0000000</text>		</g>
		<g id="shape13-50" v:mID="13" v:groupContext="shape" transform="translate(232.534,-456.216)">
			<title>Ellipse.13</title>
			<desc>M milling station</desc>
			<v:userDefs>
				<v:ud v:nameU="visVersion" v:val="VT0(15):26"/>
			</v:userDefs>
			<v:textBlock v:margins="rect(4,4,4,4)" v:tabSpace="42.5197"/>
			<v:textRect cx="48.3931" cy="809.628" width="84.69" height="56.4586"/>
			<path d="M0 809.63 A48.3931 32.262 0 1 1 96.79 809.63 A48.3931 32.262 0 1 1 0 809.63 Z" class="st1"/>
			<text x="44.97" y="807.23" class="st2" v:langID="1033"><v:paragraph v:horizAlign="1"/><v:tabList/>M<v:lf/><tspan
						x="25.35" dy="1.2em" class="st3">milling station</tspan></text>		</g>
		<g id="shape14-54" v:mID="14" v:groupContext="shape" v:layerMember="0" transform="translate(273.841,-558.728)">
			<title>Dynamic connector.14</title>
			<desc>1------/1001000</desc>
			<v:textBlock v:margins="rect(4,4,4,4)" v:tabSpace="42.5197"/>
			<v:textRect cx="7.08661" cy="860.884" width="60.04" height="17.6036"/>
			<path d="M7.09 841.89 C7.09 849.4 7.09 862.84 7.09 872.84" class="st4"/>
			<rect v:rectContext="textBkgnd" x="-18.0247" y="856.084" width="50.2229" height="9.59985" class="st11"/>
			<text x="-18.02" y="863.28" class="st8" v:langID="1033"><v:paragraph v:horizAlign="1"/><v:tabList/>1------/1001000</text>		</g>
		<g id="shape15-61" v:mID="15" v:groupContext="shape" v:layerMember="0" transform="translate(336.407,-488.478)">
			<title>Dynamic connector.15</title>
			<desc>0------/0000000</desc>
			<v:textBlock v:margins="rect(4,4,4,4)" v:tabSpace="42.5197"/>
			<v:textRect cx="125.604" cy="717.822" width="60.04" height="17.6036"/>
			<path d="M-7.09 841.89 C28.35 845.81 118.94 824.12 125.64 739.75 C130.93 673.15 83.96 567.51 -0.83 608.1 L-1.15 608.27"
					class="st6"/>
			<rect v:rectContext="textBkgnd" x="100.493" y="713.022" width="50.2229" height="9.59985" class="st11"/>
			<text x="100.49" y="720.22" class="st8" v:langID="1033"><v:paragraph v:horizAlign="1"/><v:tabList/>0------/0000000</text>		</g>
		<g id="shape16-68" v:mID="16" v:groupContext="shape" transform="translate(232.534,-353.704)">
			<title>Ellipse.16</title>
			<desc>A after control</desc>
			<v:userDefs>
				<v:ud v:nameU="visVersion" v:val="VT0(15):26"/>
			</v:userDefs>
			<v:textBlock v:margins="rect(4,4,4,4)" v:tabSpace="42.5197"/>
			<v:textRect cx="48.3931" cy="809.628" width="84.69" height="56.4586"/>
			<path d="M0 809.63 A48.3931 32.262 0 1 1 96.79 809.63 A48.3931 32.262 0 1 1 0 809.63 Z" class="st1"/>
			<text x="46.08" y="807.23" class="st2" v:langID="1033"><v:paragraph v:horizAlign="1"/><v:tabList/>A<v:lf/><tspan
						x="27.96" dy="1.2em" class="st3">after control</tspan></text>		</g>
		<g id="shape18-72" v:mID="18" v:groupContext="shape" v:layerMember="0" transform="translate(273.841,-456.216)">
			<title>Dynamic connector.18</title>
			<desc>1------/1000100</desc>
			<v:textBlock v:margins="rect(4,4,4,4)" v:tabSpace="42.5197"/>
			<v:textRect cx="7.08661" cy="860.884" width="60.04" height="17.6036"/>
			<path d="M7.09 841.89 C7.09 849.4 7.09 862.84 7.09 872.84" class="st4"/>
			<rect v:rectContext="textBkgnd" x="-18.0247" y="856.084" width="50.2229" height="9.59985" class="st11"/>
			<text x="-18.02" y="863.28" class="st8" v:langID="1033"><v:paragraph v:horizAlign="1"/><v:tabList/>1------/1000100</text>		</g>
		<g id="shape19-79" v:mID="19" v:groupContext="shape" v:layerMember="0" transform="translate(239.621,-385.966)">
			<title>Dynamic connector.19</title>
			<desc>0------/1000010</desc>
			<v:textBlock v:margins="rect(4,4,4,4)" v:tabSpace="42.5197"/>
			<v:textRect cx="-188.978" cy="620.232" width="60.04" height="17.6036"/>
			<path d="M-7.09 841.89 C-116.31 850.85 -191.8 749.37 -197.57 654.48 C-202.87 567.5 -149.59 486.07 -14.03 507.64 L-13.67
						 507.7" class="st6"/>
			<rect v:rectContext="textBkgnd" x="-214.089" y="615.432" width="50.2229" height="9.59985" class="st7"/>
			<text x="-214.09" y="622.63" class="st8" v:langID="1033"><v:paragraph v:horizAlign="1"/><v:tabList/>0------/1000010</text>		</g>
		<g id="shape20-86" v:mID="20" v:groupContext="shape" v:layerMember="0" transform="translate(336.407,-385.966)">
			<title>Dynamic connector.20</title>
			<desc>1------/0000001</desc>
			<v:textBlock v:margins="rect(4,4,4,4)" v:tabSpace="42.5197"/>
			<v:textRect cx="167.163" cy="652.186" width="60.04" height="17.6036"/>
			<path d="M-7.09 841.89 C46.27 865.02 157.32 752.29 167.71 647.36 C176.99 553.59 105.89 466.06 -0.55 506.21 L-0.88 506.34"
					class="st6"/>
			<rect v:rectContext="textBkgnd" x="142.052" y="647.386" width="50.2229" height="9.59985" class="st11"/>
			<text x="142.05" y="654.59" class="st8" v:langID="1033"><v:paragraph v:horizAlign="1"/><v:tabList/>1------/0000001</text>		</g>
	</g>
</svg>
