<?xml version="1.0" encoding="UTF-8" standalone="no"?>
<!DOCTYPE svg PUBLIC "-//W3C//DTD SVG 1.1//EN" "http://www.w3.org/Graphics/SVG/1.1/DTD/svg11.dtd">
<!-- Generated by Microsoft Visio, SVG Export stgChart.svg Page-1 -->
<svg xmlns="http://www.w3.org/2000/svg" xmlns:xlink="http://www.w3.org/1999/xlink" xmlns:ev="http://www.w3.org/2001/xml-events"
		xmlns:v="http://schemas.microsoft.com/visio/2003/SVGExtensions/" width="7.01997in" height="7.2475in"
		viewBox="0 0 505.438 521.82" xml:space="preserve" color-interpolation-filters="sRGB" class="st12">
	<title>stg milling</title>
	<v:documentProperties v:langID="1033" v:metric="true" v:viewMarkup="false">
		<v:userDefs>
			<v:ud v:nameU="msvSubprocessMaster" v:prompt="" v:val="VT4(Rectangle)"/>
			<v:ud v:nameU="msvNoAutoConnect" v:val="VT0(1):26"/>
		</v:userDefs>
	</v:documentProperties>

	<style type="text/css">
	<![CDATA[
		.st1 {fill:#4672c4;stroke:#c7c8c8;stroke-width:0.25}
		.st2 {fill:#feffff;font-family:Calibri;font-size:0.666664em}
		.st3 {font-size:1em}
		.st4 {marker-end:url(#mrkr4-13);stroke:#4672c4;stroke-linecap:round;stroke-linejoin:round;stroke-width:1}
		.st5 {fill:#4672c4;fill-opacity:1;stroke:#4672c4;stroke-opacity:1;stroke-width:0.28409090909091}
		.st6 {fill:#ffffff;stroke:none;stroke-linecap:butt;stroke-width:7.2}
		.st7 {fill:#3c63ac;font-family:Calibri;font-size:0.666664em}
		.st8 {fill:#ffffff;stroke:none;stroke-linecap:butt}
		.st9 {fill:#8ea9db;stroke:#c7c8c8;stroke-width:0.25}
		.st10 {fill:#3359a2;stroke:#c7c8c8;stroke-width:0.25}
		.st11 {marker-end:url(#mrkr4-58);stroke:#4672c4;stroke-linecap:round;stroke-linejoin:round;stroke-width:1}
		.st12 {fill:none;fill-rule:evenodd;font-size:12px;overflow:visible;stroke-linecap:square;stroke-miterlimit:3}
	]]>
	</style>

	<defs id="Markers">
		<g id="lend4">
			<path d="M 2 1 L 0 0 L 2 -1 L 2 1 " style="stroke:none"/>
		</g>
		<marker id="mrkr4-13" class="st5" v:arrowType="4" v:arrowSize="2" v:setback="6.68" refX="-6.68" orient="auto"
				markerUnits="strokeWidth" overflow="visible">
			<use xlink:href="#lend4" transform="scale(-3.52,-3.52) "/>
		</marker>
		<marker id="mrkr4-58" class="st5" v:arrowType="4" v:arrowSize="2" v:setback="7.04" refX="-7.04" orient="auto"
				markerUnits="strokeWidth" overflow="visible">
			<use xlink:href="#lend4" transform="scale(-3.52,-3.52) "/>
		</marker>
	</defs>
	<g v:mID="0" v:index="1" v:groupContext="foregroundPage">
		<v:userDefs>
			<v:ud v:nameU="msvThemeOrder" v:val="VT0(0):26"/>
		</v:userDefs>
		<title>Page-1</title>
		<v:pageProperties v:drawingScale="0.0393701" v:pageScale="0.0393701" v:drawingUnits="24" v:shadowOffsetX="8.50394"
				v:shadowOffsetY="-8.50394"/>
		<v:layer v:name="Connector" v:index="0"/>
		<g id="shape1-1" v:mID="1" v:groupContext="shape" transform="translate(242.463,-445.498)">
			<title>Rectangle</title>
			<desc>FSMD.blif</desc>
			<v:userDefs>
				<v:ud v:nameU="visVersion" v:val="VT0(15):26"/>
			</v:userDefs>
			<v:textBlock v:margins="rect(4,4,4,4)" v:tabSpace="42.5197"/>
			<v:textRect cx="38.7145" cy="492.784" width="77.43" height="58.0717"/>
			<rect x="0" y="463.748" width="77.4289" height="58.0717" class="st1"/>
			<text x="22.99" y="495.18" class="st2" v:langID="1033"><v:paragraph v:horizAlign="1"/><v:tabList/>FSMD.blif  </text>		</g>
		<g id="shape2-4" v:mID="2" v:groupContext="shape" transform="translate(172.505,-359.714)">
			<title>Ellipse</title>
			<desc>S start</desc>
			<v:userDefs>
				<v:ud v:nameU="visVersion" v:val="VT0(15):26"/>
			</v:userDefs>
			<v:textBlock v:margins="rect(4,4,4,4)" v:tabSpace="42.5197"/>
			<v:textRect cx="48.3931" cy="489.558" width="84.69" height="56.4586"/>
			<path d="M0 489.56 A48.3931 32.262 0 1 1 96.79 489.56 A48.3931 32.262 0 1 1 0 489.56 Z" class="st1"/>
			<text x="46.56" y="487.16" class="st2" v:langID="1033"><v:paragraph v:horizAlign="1"/><v:tabList/>S<v:lf/><tspan
						x="40.84" dy="1.2em" class="st3">start</tspan></text>		</g>
		<g id="shape4-8" v:mID="4" v:groupContext="shape" v:layerMember="0" transform="translate(281.177,-445.498)">
			<title>Dynamic connector</title>
			<path d="M0 521.82 C-0 532.45 -15.07 532.45 -30.14 532.45 C-41.21 532.45 -52.28 532.45 -57.38 536.67 L-57.53 536.99"
					class="st4"/>
		</g>
		<g id="shape5-14" v:mID="5" v:groupContext="shape" v:layerMember="0" transform="translate(220.898,-359.714)">
			<title>Dynamic connector.5</title>
			<desc>0---/0000000</desc>
			<v:textBlock v:margins="rect(4,4,4,4)" v:tabSpace="42.5197"/>
			<v:textRect cx="31.3852" cy="548.638" width="52.69" height="17.6036"/>
			<path d="M0 521.82 C20.05 540.13 31.03 545.68 45.39 539.1 C56.34 534.08 69.26 522.01 52.38 495.36 L52.17 495.06"
					class="st4"/>
			<rect v:rectContext="textBkgnd" x="9.94753" y="543.838" width="42.8755" height="9.59985" class="st6"/>
			<text x="9.95" y="551.04" class="st7" v:langID="1033"><v:paragraph v:horizAlign="1"/><v:tabList/>0---/0000000</text>		</g>
		<g id="shape6-21" v:mID="6" v:groupContext="shape" transform="translate(232.441,-189.818)">
			<title>Ellipse.6</title>
			<desc>B before control</desc>
			<v:userDefs>
				<v:ud v:nameU="visVersion" v:val="VT0(15):26"/>
			</v:userDefs>
			<v:textBlock v:margins="rect(4,4,4,4)" v:tabSpace="42.5197"/>
			<v:textRect cx="48.3931" cy="489.558" width="84.69" height="56.4586"/>
			<path d="M0 489.56 A48.3931 32.262 0 1 1 96.79 489.56 A48.3931 32.262 0 1 1 0 489.56 Z" class="st1"/>
			<text x="46.22" y="487.16" class="st2" v:langID="1033"><v:paragraph v:horizAlign="1"/><v:tabList/>B<v:lf/><tspan
						x="25.02" dy="1.2em" class="st3">before control</tspan></text>		</g>
		<g id="shape7-25" v:mID="7" v:groupContext="shape" v:layerMember="0" transform="translate(220.898,-359.714)">
			<title>Dynamic connector.7</title>
			<desc>1110/1100000</desc>
			<v:textBlock v:margins="rect(4,4,4,4)" v:tabSpace="42.5197"/>
			<v:textRect cx="7.9789" cy="608.894" width="57.51" height="17.6036"/>
			<path d="M0 521.82 C-11.13 551.47 -11.14 563.51 -6.1 578.06 C-0.72 593.58 10.4 611.96 53.18 625.22 L53.52 625.32"
					class="st4"/>
			<rect v:rectContext="textBkgnd" x="-15.8672" y="604.095" width="47.6925" height="9.59985" class="st8"/>
			<text x="-15.87" y="611.29" class="st7" v:langID="1033"><v:paragraph v:horizAlign="1"/><v:tabList/>1110/1100000</text>		</g>
		<g id="group9-32" transform="translate(18.25,-424.218)" v:mID="9" v:groupContext="group">
			<v:userDefs>
				<v:ud v:nameU="visVersion" v:prompt="" v:val="VT0(15):26"/>
			</v:userDefs>
			<title>Cube</title>
			<desc>Legend in1 in2 in3 spegniti IO GA GB GC GD GE GF</desc>
			<g id="shape10-33" v:mID="10" v:groupContext="shape">
				<title>Sheet.10</title>
				<v:userDefs>
					<v:ud v:nameU="ControlHeight" v:prompt="" v:val="VT0(0.94488188976378):24"/>
					<v:ud v:nameU="FillForegnd" v:prompt="" v:val="VT0(1):26"/>
					<v:ud v:nameU="ControlHeight" v:prompt="" v:val="VT0(0.97809435779094):1"/>
					<v:ud v:nameU="FillForegnd" v:prompt="" v:val="VT5(#4672c4)"/>
				</v:userDefs>
				<path d="M0 451.4 L108.88 451.4 L117.81 442.47 L8.93 442.47 L0 451.4 Z" class="st9"/>
			</g>
			<g id="shape11-35" v:mID="11" v:groupContext="shape">
				<title>Sheet.11</title>
				<v:userDefs>
					<v:ud v:nameU="ControlHeight" v:prompt="" v:val="VT0(0.94488188976378):24"/>
					<v:ud v:nameU="FillForegnd" v:prompt="" v:val="VT0(1):26"/>
					<v:ud v:nameU="ControlHeight" v:prompt="" v:val="VT0(0.97809435779094):1"/>
					<v:ud v:nameU="FillForegnd" v:prompt="" v:val="VT5(#4672c4)"/>
				</v:userDefs>
				<path d="M108.88 521.82 L117.81 512.89 L117.81 442.47 L108.88 451.4 L108.88 521.82 Z" class="st10"/>
			</g>
			<g id="shape9-37" v:mID="9" v:groupContext="groupContent">
				<v:textBlock v:margins="rect(4,4,4,4)" v:tabSpace="42.5197"/>
				<v:textRect cx="54.4419" cy="486.608" width="108.89" height="70.4228"/>
				<rect x="0" y="451.397" width="108.884" height="70.4228" class="st1"/>
				<text x="42.69" y="479.41" class="st2" v:langID="1033"><v:paragraph v:horizAlign="1"/><v:tabList/>Legend<v:lf/><tspan
							x="23.77" dy="1.2em" class="st3">in1 in2 in3 spegniti <v:lf/></tspan><tspan x="17.34" dy="1.2em"
							class="st3">IO GA GB GC GD GE GF</tspan></text>			</g>
		</g>
		<g id="shape12-42" v:mID="12" v:groupContext="shape" v:layerMember="0" transform="translate(329.227,-222.08)">
			<title>Dynamic connector.12</title>
			<desc>0---/0000000</desc>
			<v:textBlock v:margins="rect(4,4,4,4)" v:tabSpace="42.5197"/>
			<v:textRect cx="82.3654" cy="442.197" width="52.69" height="17.6036"/>
			<path d="M0 521.82 C73.29 470.53 95.39 446.64 97.09 414.68 C98.11 395.5 91.79 373.41 78.26 357.11 L78.01 356.85"
					class="st4"/>
			<rect v:rectContext="textBkgnd" x="60.9277" y="437.397" width="42.8755" height="9.59985" class="st8"/>
			<text x="60.93" y="444.6" class="st7" v:langID="1033"><v:paragraph v:horizAlign="1"/><v:tabList/>0---/0000000</text>		</g>
		<g id="shape13-49" v:mID="13" v:groupContext="shape" transform="translate(232.441,-104.034)">
			<title>Ellipse.13</title>
			<desc>M milling station</desc>
			<v:userDefs>
				<v:ud v:nameU="visVersion" v:val="VT0(15):26"/>
			</v:userDefs>
			<v:textBlock v:margins="rect(4,4,4,4)" v:tabSpace="42.5197"/>
			<v:textRect cx="48.3931" cy="489.558" width="84.69" height="56.4586"/>
			<path d="M0 489.56 A48.3931 32.262 0 1 1 96.79 489.56 A48.3931 32.262 0 1 1 0 489.56 Z" class="st1"/>
			<text x="44.97" y="487.16" class="st2" v:langID="1033"><v:paragraph v:horizAlign="1"/><v:tabList/>M<v:lf/><tspan
						x="25.35" dy="1.2em" class="st3">milling station</tspan></text>		</g>
		<g id="shape14-53" v:mID="14" v:groupContext="shape" v:layerMember="0" transform="translate(273.747,-189.818)">
			<title>Dynamic connector.14</title>
			<desc>1--0/1001000</desc>
			<v:textBlock v:margins="rect(4,4,4,4)" v:tabSpace="42.5197"/>
			<v:textRect cx="7.08661" cy="532.45" width="54.3" height="17.6036"/>
			<path d="M7.09 521.82 C7.09 525.28 7.09 531 7.09 536.04" class="st11"/>
			<rect v:rectContext="textBkgnd" x="-15.1539" y="527.65" width="44.4812" height="9.59985" class="st6"/>
			<text x="-15.15" y="534.85" class="st7" v:langID="1033"><v:paragraph v:horizAlign="1"/><v:tabList/>1--0/1001000</text>		</g>
		<g id="shape16-61" v:mID="16" v:groupContext="shape" transform="translate(232.441,-18.25)">
			<title>Ellipse.16</title>
			<desc>A after control</desc>
			<v:userDefs>
				<v:ud v:nameU="visVersion" v:val="VT0(15):26"/>
			</v:userDefs>
			<v:textBlock v:margins="rect(4,4,4,4)" v:tabSpace="42.5197"/>
			<v:textRect cx="48.3931" cy="489.558" width="84.69" height="56.4586"/>
			<path d="M0 489.56 A48.3931 32.262 0 1 1 96.79 489.56 A48.3931 32.262 0 1 1 0 489.56 Z" class="st1"/>
			<text x="46.08" y="487.16" class="st2" v:langID="1033"><v:paragraph v:horizAlign="1"/><v:tabList/>A<v:lf/><tspan
						x="27.96" dy="1.2em" class="st3">after control</tspan></text>		</g>
		<g id="shape18-65" v:mID="18" v:groupContext="shape" v:layerMember="0" transform="translate(273.747,-104.034)">
			<title>Dynamic connector.18</title>
			<desc>1--0/1000100</desc>
			<v:textBlock v:margins="rect(4,4,4,4)" v:tabSpace="42.5197"/>
			<v:textRect cx="7.08661" cy="532.45" width="54.3" height="17.6036"/>
			<path d="M7.09 521.82 C7.09 525.28 7.09 531 7.09 536.04" class="st11"/>
			<rect v:rectContext="textBkgnd" x="-15.1539" y="527.65" width="44.4812" height="9.59985" class="st8"/>
			<text x="-15.15" y="534.85" class="st7" v:langID="1033"><v:paragraph v:horizAlign="1"/><v:tabList/>1--0/1000100</text>		</g>
		<g id="shape19-72" v:mID="19" v:groupContext="shape" v:layerMember="0" transform="translate(232.441,-50.512)">
			<title>Dynamic connector.19</title>
			<desc>0--1/0000010 1—1/0000001</desc>
			<v:textBlock v:margins="rect(4,4,4,4)" v:tabSpace="42.5197"/>
			<v:textRect cx="-182.792" cy="316.501" width="56.64" height="27.2035"/>
			<path d="M0 521.82 C-108.88 515.64 -187.77 409.59 -190.52 310.74 C-192.8 229.15 -143.21 152.47 -66.55 177.93 L-66.21
						 178.06" class="st4"/>
			<rect v:rectContext="textBkgnd" x="-206.204" y="306.901" width="46.8251" height="19.1997" class="st6"/>
			<text x="-205.03" y="314.1" class="st7" v:langID="1033"><v:paragraph v:horizAlign="1"/><v:tabList/>0--1/0000010<v:lf/><tspan
						x="-206.2" dy="1.2em" class="st3">1</tspan>—1/0000001</text>		</g>
		<g id="shape1000-80" v:mID="1000" v:groupContext="shape" transform="translate(305.938,-359.714)">
			<title>Ellipse.1000</title>
			<desc>I start</desc>
			<v:userDefs>
				<v:ud v:nameU="visVersion" v:val="VT0(15):26"/>
			</v:userDefs>
			<v:textBlock v:margins="rect(4,4,4,4)" v:tabSpace="42.5197"/>
			<v:textRect cx="48.3931" cy="489.558" width="84.69" height="56.4586"/>
			<path d="M0 489.56 A48.3931 32.262 0 1 1 96.79 489.56 A48.3931 32.262 0 1 1 0 489.56 Z" class="st1"/>
			<text x="47.39" y="487.16" class="st2" v:langID="1033"><v:paragraph v:horizAlign="1"/><v:tabList/>I<v:lf/><tspan
						x="40.84" dy="1.2em" class="st3">start</tspan></text>		</g>
		<g id="shape1001-84" v:mID="1001" v:groupContext="shape" v:layerMember="0" transform="translate(305.938,-384.89)">
			<title>Dynamic connector.1001</title>
			<desc>0---/0000000 ---1/0000000</desc>
			<v:textBlock v:margins="rect(4,4,4,4)" v:tabSpace="42.5197"/>
			<v:textRect cx="-13.9691" cy="488.774" width="52.69" height="27.2035"/>
			<path d="M0 514.73 C-12.07 494.75 -26.41 496.27 -33.75 508.32 L-33.89 508.65" class="st4"/>
			<rect v:rectContext="textBkgnd" x="-35.4068" y="479.175" width="42.8755" height="19.1997" class="st6"/>
			<text x="-35.41" y="486.37" class="st7" v:langID="1033"><v:paragraph v:horizAlign="1"/><v:tabList/>0---/0000000<v:lf/><tspan
						x="-35.41" dy="1.2em" class="st3">---</tspan>1/0000000</text>		</g>
		<g id="shape1002-92" v:mID="1002" v:groupContext="shape" v:layerMember="0" transform="translate(354.331,-359.714)">
			<title>Dynamic connector.1002</title>
			<desc>1—0/1100000</desc>
			<v:textBlock v:margins="rect(4,4,4,4)" v:tabSpace="42.5197"/>
			<v:textRect cx="-4.33624" cy="592.393" width="56.64" height="17.6036"/>
			<path d="M0 521.82 C19.84 574.15 7.57 582.74 -0.45 589.21 C-10.56 597.36 -13.92 602.13 -67 624.47 L-67.33 624.61"
					class="st4"/>
			<rect v:rectContext="textBkgnd" x="-27.7487" y="587.593" width="46.8251" height="9.59985" class="st8"/>
			<text x="-27.75" y="594.79" class="st7" v:langID="1033"><v:paragraph v:horizAlign="1"/><v:tabList/>1—0/1100000</text>		</g>
		<g id="shape1003-99" v:mID="1003" v:groupContext="shape" v:layerMember="0" transform="translate(232.441,-222.08)">
			<title>Dynamic connector.1003</title>
			<desc>1—1/0010000</desc>
			<v:textBlock v:margins="rect(4,4,4,4)" v:tabSpace="42.5197"/>
			<v:textRect cx="-82.6888" cy="457.177" width="56.64" height="17.6036"/>
			<path d="M0 521.82 C-62.36 515.89 -77.72 479.6 -84.82 448.81 C-91.79 418.6 -90.83 393.68 -64.2 357.53 L-63.98 357.24"
					class="st4"/>
			<rect v:rectContext="textBkgnd" x="-106.101" y="452.377" width="46.8251" height="9.59985" class="st6"/>
			<text x="-106.1" y="459.58" class="st7" v:langID="1033"><v:paragraph v:horizAlign="1"/><v:tabList/>1—1/0010000</text>		</g>
		<g id="shape1005-106" v:mID="1005" v:groupContext="shape" v:layerMember="0" transform="translate(232.441,-136.296)">
			<title>Dynamic connector.1005</title>
			<desc>0—0/0000000 1—1/0000000</desc>
			<v:textBlock v:margins="rect(4,4,4,4)" v:tabSpace="42.5197"/>
			<v:textRect cx="-119.61" cy="414.263" width="56.64" height="27.2035"/>
			<path d="M0 521.82 C-70.57 521.82 -125.7 441.58 -124.71 376.79 C-123.89 322.85 -84.17 279.61 -66.47 268.77 L-66.13 268.63"
					class="st4"/>
			<rect v:rectContext="textBkgnd" x="-143.022" y="404.664" width="46.8251" height="19.1997" class="st6"/>
			<text x="-143.02" y="411.86" class="st7" v:langID="1033"><v:paragraph v:horizAlign="1"/><v:tabList/>0—0/0000000<v:lf/><tspan
						x="-143.02" dy="1.2em" class="st3">1</tspan>—1/0000000</text>		</g>
		<g id="shape1006-114" v:mID="1006" v:groupContext="shape" v:layerMember="0" transform="translate(329.227,-50.512)">
			<title>Dynamic connector.1006</title>
			<desc>0—0/1000010 1—0/1000001</desc>
			<v:textBlock v:margins="rect(4,4,4,4)" v:tabSpace="42.5197"/>
			<v:textRect cx="144.082" cy="361.957" width="56.64" height="27.2035"/>
			<path d="M0 521.82 C101.64 531.4 155.89 376.44 152.52 281.69 C149.62 199.9 103.79 162.99 79.11 176.11 L78.82 176.33"
					class="st4"/>
			<rect v:rectContext="textBkgnd" x="120.669" y="352.357" width="46.8251" height="19.1997" class="st6"/>
			<text x="120.67" y="359.56" class="st7" v:langID="1033"><v:paragraph v:horizAlign="1"/><v:tabList/>0—0/1000010<v:lf/><tspan
						x="120.67" dy="1.2em" class="st3">1</tspan>—0/1000001</text>		</g>
	</g>
</svg>
