<?xml version="1.0" encoding="UTF-8" standalone="no"?>
<!DOCTYPE svg PUBLIC "-//W3C//DTD SVG 1.1//EN" "http://www.w3.org/Graphics/SVG/1.1/DTD/svg11.dtd">
<!-- Generated by Microsoft Visio, SVG Export stgChart.svg Page-1 -->
<svg xmlns="http://www.w3.org/2000/svg" xmlns:xlink="http://www.w3.org/1999/xlink" xmlns:ev="http://www.w3.org/2001/xml-events"
		xmlns:v="http://schemas.microsoft.com/visio/2003/SVGExtensions/" width="7.66441in" height="7.0373in"
		viewBox="0 0 551.837 506.685" xml:space="preserve" color-interpolation-filters="sRGB" class="st12">
	<title>stg milling</title>
	<v:documentProperties v:langID="1033" v:metric="true" v:viewMarkup="false">
		<v:userDefs>
			<v:ud v:nameU="msvSubprocessMaster" v:prompt="" v:val="VT4(Rectangle)"/>
			<v:ud v:nameU="msvNoAutoConnect" v:val="VT0(1):26"/>
		</v:userDefs>
	</v:documentProperties>

	<style type="text/css">
	<![CDATA[
		.st1 {fill:#4672c4;stroke:#c7c8c8;stroke-width:0.25}
		.st2 {fill:#feffff;font-family:Calibri;font-size:0.666664em}
		.st3 {font-size:1em}
		.st4 {marker-end:url(#mrkr4-13);stroke:#4672c4;stroke-linecap:round;stroke-linejoin:round;stroke-width:1}
		.st5 {fill:#4672c4;fill-opacity:1;stroke:#4672c4;stroke-opacity:1;stroke-width:0.28409090909091}
		.st6 {marker-end:url(#mrkr4-19);stroke:#4672c4;stroke-linecap:round;stroke-linejoin:round;stroke-width:1}
		.st7 {fill:#ffffff;stroke:none;stroke-linecap:butt}
		.st8 {fill:#3c63ac;font-family:Calibri;font-size:0.666664em}
		.st9 {fill:#ffffff;stroke:none;stroke-linecap:butt;stroke-width:7.2}
		.st10 {fill:#8ea9db;stroke:#c7c8c8;stroke-width:0.25}
		.st11 {fill:#3359a2;stroke:#c7c8c8;stroke-width:0.25}
		.st12 {fill:none;fill-rule:evenodd;font-size:12px;overflow:visible;stroke-linecap:square;stroke-miterlimit:3}
	]]>
	</style>

	<defs id="Markers">
		<g id="lend4">
			<path d="M 2 1 L 0 0 L 2 -1 L 2 1 " style="stroke:none"/>
		</g>
		<marker id="mrkr4-13" class="st5" v:arrowType="4" v:arrowSize="2" v:setback="7.04" refX="-7.04" orient="auto"
				markerUnits="strokeWidth" overflow="visible">
			<use xlink:href="#lend4" transform="scale(-3.52,-3.52) "/>
		</marker>
		<marker id="mrkr4-19" class="st5" v:arrowType="4" v:arrowSize="2" v:setback="6.68" refX="-6.68" orient="auto"
				markerUnits="strokeWidth" overflow="visible">
			<use xlink:href="#lend4" transform="scale(-3.52,-3.52) "/>
		</marker>
	</defs>
	<g v:mID="0" v:index="1" v:groupContext="foregroundPage">
		<v:userDefs>
			<v:ud v:nameU="msvThemeOrder" v:val="VT0(0):26"/>
		</v:userDefs>
		<title>Page-1</title>
		<v:pageProperties v:drawingScale="0.0393701" v:pageScale="0.0393701" v:drawingUnits="24" v:shadowOffsetX="8.50394"
				v:shadowOffsetY="-8.50394"/>
		<v:layer v:name="Connector" v:index="0"/>
		<g id="shape1-1" v:mID="1" v:groupContext="shape" transform="translate(242.463,-430.364)">
			<title>Rectangle</title>
			<desc>FSMD.blif</desc>
			<v:userDefs>
				<v:ud v:nameU="visVersion" v:val="VT0(15):26"/>
			</v:userDefs>
			<v:textBlock v:margins="rect(4,4,4,4)" v:tabSpace="42.5197"/>
			<v:textRect cx="38.7145" cy="477.65" width="77.43" height="58.0717"/>
			<rect x="0" y="448.614" width="77.4289" height="58.0717" class="st1"/>
			<text x="22.99" y="480.05" class="st2" v:langID="1033"><v:paragraph v:horizAlign="1"/><v:tabList/>FSMD.blif  </text>		</g>
		<g id="shape2-4" v:mID="2" v:groupContext="shape" transform="translate(232.784,-351.322)">
			<title>Ellipse</title>
			<desc>S start</desc>
			<v:userDefs>
				<v:ud v:nameU="visVersion" v:val="VT0(15):26"/>
			</v:userDefs>
			<v:textBlock v:margins="rect(4,4,4,4)" v:tabSpace="42.5197"/>
			<v:textRect cx="48.3931" cy="474.423" width="84.69" height="56.4586"/>
			<path d="M0 474.42 A48.3931 32.262 0 1 1 96.79 474.42 A48.3931 32.262 0 1 1 0 474.42 Z" class="st1"/>
			<text x="46.56" y="472.02" class="st2" v:langID="1033"><v:paragraph v:horizAlign="1"/><v:tabList/>S<v:lf/><tspan
						x="40.84" dy="1.2em" class="st3">start</tspan></text>		</g>
		<g id="shape4-8" v:mID="4" v:groupContext="shape" v:layerMember="0" transform="translate(274.091,-430.364)">
			<title>Dynamic connector</title>
			<path d="M7.09 506.69 C7.09 508.55 7.09 511.37 7.09 514.16" class="st4"/>
		</g>
		<g id="shape5-14" v:mID="5" v:groupContext="shape" v:layerMember="0" transform="translate(281.177,-351.322)">
			<title>Dynamic connector.5</title>
			<desc>0------/000000</desc>
			<v:textBlock v:margins="rect(4,4,4,4)" v:tabSpace="42.5197"/>
			<v:textRect cx="83.832" cy="514.726" width="55.99" height="17.6036"/>
			<path d="M0 506.69 C49.82 552.99 85.6 530.58 92.63 514.08 C98.9 499.34 82.25 489.3 54.85 477.23 L54.52 477.08"
					class="st6"/>
			<rect v:rectContext="textBkgnd" x="60.7481" y="509.926" width="46.1681" height="9.59985" class="st7"/>
			<text x="60.75" y="517.13" class="st8" v:langID="1033"><v:paragraph v:horizAlign="1"/><v:tabList/>0------/000000</text>		</g>
		<g id="shape6-22" v:mID="6" v:groupContext="shape" transform="translate(232.784,-223.274)">
			<title>Ellipse.6</title>
			<desc>B before control</desc>
			<v:userDefs>
				<v:ud v:nameU="visVersion" v:val="VT0(15):26"/>
			</v:userDefs>
			<v:textBlock v:margins="rect(4,4,4,4)" v:tabSpace="42.5197"/>
			<v:textRect cx="48.3931" cy="474.423" width="84.69" height="56.4586"/>
			<path d="M0 474.42 A48.3931 32.262 0 1 1 96.79 474.42 A48.3931 32.262 0 1 1 0 474.42 Z" class="st1"/>
			<text x="46.22" y="472.02" class="st2" v:langID="1033"><v:paragraph v:horizAlign="1"/><v:tabList/>B<v:lf/><tspan
						x="25.02" dy="1.2em" class="st3">before control</tspan></text>		</g>
		<g id="shape7-26" v:mID="7" v:groupContext="shape" v:layerMember="0" transform="translate(274.091,-351.322)">
			<title>Dynamic connector.7</title>
			<desc>111----/1100000</desc>
			<v:textBlock v:margins="rect(4,4,4,4)" v:tabSpace="42.5197"/>
			<v:textRect cx="7.08661" cy="538.447" width="63.25" height="17.6036"/>
			<path d="M7.09 506.69 C7.09 520.47 7.09 546.23 7.09 563.17" class="st4"/>
			<rect v:rectContext="textBkgnd" x="-19.6304" y="533.648" width="53.4342" height="9.59985" class="st9"/>
			<text x="-19.63" y="540.85" class="st8" v:langID="1033"><v:paragraph v:horizAlign="1"/><v:tabList/>111----/1100000</text>		</g>
		<g id="group9-33" transform="translate(18.25,-409.083)" v:mID="9" v:groupContext="group">
			<v:userDefs>
				<v:ud v:nameU="visVersion" v:prompt="" v:val="VT0(15):26"/>
			</v:userDefs>
			<title>Cube</title>
			<desc>Legend in1 in2 in3 in4 in5 in6 in7 io GA GB GC GD GE GF</desc>
			<g id="shape10-34" v:mID="10" v:groupContext="shape">
				<title>Sheet.10</title>
				<v:userDefs>
					<v:ud v:nameU="ControlHeight" v:prompt="" v:val="VT0(0.94488188976378):24"/>
					<v:ud v:nameU="FillForegnd" v:prompt="" v:val="VT0(1):26"/>
					<v:ud v:nameU="ControlHeight" v:prompt="" v:val="VT0(0.97809435779094):1"/>
					<v:ud v:nameU="FillForegnd" v:prompt="" v:val="VT5(#4672c4)"/>
				</v:userDefs>
				<path d="M0 436.26 L96.87 436.26 L105.8 427.33 L8.93 427.33 L0 436.26 Z" class="st10"/>
			</g>
			<g id="shape11-36" v:mID="11" v:groupContext="shape">
				<title>Sheet.11</title>
				<v:userDefs>
					<v:ud v:nameU="ControlHeight" v:prompt="" v:val="VT0(0.94488188976378):24"/>
					<v:ud v:nameU="FillForegnd" v:prompt="" v:val="VT0(1):26"/>
					<v:ud v:nameU="ControlHeight" v:prompt="" v:val="VT0(0.97809435779094):1"/>
					<v:ud v:nameU="FillForegnd" v:prompt="" v:val="VT5(#4672c4)"/>
				</v:userDefs>
				<path d="M96.87 506.69 L105.8 497.76 L105.8 427.33 L96.87 436.26 L96.87 506.69 Z" class="st11"/>
			</g>
			<g id="shape9-38" v:mID="9" v:groupContext="groupContent">
				<v:textBlock v:margins="rect(4,4,4,4)" v:tabSpace="42.5197"/>
				<v:textRect cx="48.4367" cy="471.474" width="96.88" height="70.4228"/>
				<rect x="0" y="436.263" width="96.8734" height="70.4228" class="st1"/>
				<text x="36.69" y="464.27" class="st2" v:langID="1033"><v:paragraph v:horizAlign="1"/><v:tabList/>Legend<v:lf/><tspan
							x="7.68" dy="1.2em" class="st3">in1 in2 in3 in4 in5 in6 in7<v:lf/></tspan><tspan x="11.97" dy="1.2em"
							class="st3">io GA GB GC GD GE GF</tspan></text>			</g>
		</g>
		<g id="shape12-43" v:mID="12" v:groupContext="shape" v:layerMember="0" transform="translate(225.697,-255.536)">
			<title>Dynamic connector.12</title>
			<desc>0------/0000000</desc>
			<v:textBlock v:margins="rect(4,4,4,4)" v:tabSpace="42.5197"/>
			<v:textRect cx="-50.6095" cy="437.365" width="60.04" height="17.6036"/>
			<path d="M7.09 506.69 C-30.77 499.73 -44.31 470.08 -44.92 445.35 C-45.55 419.84 -32.41 399.56 0.81 381.84 L1.14 381.67"
					class="st6"/>
			<rect v:rectContext="textBkgnd" x="-75.7209" y="432.565" width="50.2229" height="9.59985" class="st9"/>
			<text x="-75.72" y="439.76" class="st8" v:langID="1033"><v:paragraph v:horizAlign="1"/><v:tabList/>0------/0000000</text>		</g>
		<g id="shape13-50" v:mID="13" v:groupContext="shape" transform="translate(232.784,-120.762)">
			<title>Ellipse.13</title>
			<desc>M milling station</desc>
			<v:userDefs>
				<v:ud v:nameU="visVersion" v:val="VT0(15):26"/>
			</v:userDefs>
			<v:textBlock v:margins="rect(4,4,4,4)" v:tabSpace="42.5197"/>
			<v:textRect cx="48.3931" cy="474.423" width="84.69" height="56.4586"/>
			<path d="M0 474.42 A48.3931 32.262 0 1 1 96.79 474.42 A48.3931 32.262 0 1 1 0 474.42 Z" class="st1"/>
			<text x="44.97" y="472.02" class="st2" v:langID="1033"><v:paragraph v:horizAlign="1"/><v:tabList/>M<v:lf/><tspan
						x="25.35" dy="1.2em" class="st3">milling station</tspan></text>		</g>
		<g id="shape14-54" v:mID="14" v:groupContext="shape" v:layerMember="0" transform="translate(274.091,-223.274)">
			<title>Dynamic connector.14</title>
			<desc>1------/1001000</desc>
			<v:textBlock v:margins="rect(4,4,4,4)" v:tabSpace="42.5197"/>
			<v:textRect cx="7.08661" cy="525.679" width="60.04" height="17.6036"/>
			<path d="M7.09 506.69 C7.09 514.19 7.09 527.64 7.09 537.63" class="st4"/>
			<rect v:rectContext="textBkgnd" x="-18.0247" y="520.88" width="50.2229" height="9.59985" class="st9"/>
			<text x="-18.02" y="528.08" class="st8" v:langID="1033"><v:paragraph v:horizAlign="1"/><v:tabList/>1------/1001000</text>		</g>
		<g id="shape15-61" v:mID="15" v:groupContext="shape" v:layerMember="0" transform="translate(336.657,-153.024)">
			<title>Dynamic connector.15</title>
			<desc>0------/0000000</desc>
			<v:textBlock v:margins="rect(4,4,4,4)" v:tabSpace="42.5197"/>
			<v:textRect cx="125.604" cy="382.618" width="60.04" height="17.6036"/>
			<path d="M-7.09 506.69 C28.35 510.6 118.94 488.91 125.64 404.54 C130.93 337.95 83.96 232.3 -0.83 272.9 L-1.15 273.06"
					class="st6"/>
			<rect v:rectContext="textBkgnd" x="100.493" y="377.818" width="50.2229" height="9.59985" class="st7"/>
			<text x="100.49" y="385.02" class="st8" v:langID="1033"><v:paragraph v:horizAlign="1"/><v:tabList/>0------/0000000</text>		</g>
		<g id="shape16-68" v:mID="16" v:groupContext="shape" transform="translate(232.784,-18.25)">
			<title>Ellipse.16</title>
			<desc>A after control</desc>
			<v:userDefs>
				<v:ud v:nameU="visVersion" v:val="VT0(15):26"/>
			</v:userDefs>
			<v:textBlock v:margins="rect(4,4,4,4)" v:tabSpace="42.5197"/>
			<v:textRect cx="48.3931" cy="474.423" width="84.69" height="56.4586"/>
			<path d="M0 474.42 A48.3931 32.262 0 1 1 96.79 474.42 A48.3931 32.262 0 1 1 0 474.42 Z" class="st1"/>
			<text x="46.08" y="472.02" class="st2" v:langID="1033"><v:paragraph v:horizAlign="1"/><v:tabList/>A<v:lf/><tspan
						x="27.96" dy="1.2em" class="st3">after control</tspan></text>		</g>
		<g id="shape18-72" v:mID="18" v:groupContext="shape" v:layerMember="0" transform="translate(274.091,-120.762)">
			<title>Dynamic connector.18</title>
			<desc>1------/1000100</desc>
			<v:textBlock v:margins="rect(4,4,4,4)" v:tabSpace="42.5197"/>
			<v:textRect cx="7.08661" cy="525.679" width="60.04" height="17.6036"/>
			<path d="M7.09 506.69 C7.09 514.19 7.09 527.64 7.09 537.63" class="st4"/>
			<rect v:rectContext="textBkgnd" x="-18.0247" y="520.88" width="50.2229" height="9.59985" class="st7"/>
			<text x="-18.02" y="528.08" class="st8" v:langID="1033"><v:paragraph v:horizAlign="1"/><v:tabList/>1------/1000100</text>		</g>
		<g id="shape19-79" v:mID="19" v:groupContext="shape" v:layerMember="0" transform="translate(239.871,-50.512)">
			<title>Dynamic connector.19</title>
			<desc>0------/1000010</desc>
			<v:textBlock v:margins="rect(4,4,4,4)" v:tabSpace="42.5197"/>
			<v:textRect cx="-188.978" cy="285.027" width="60.04" height="17.6036"/>
			<path d="M-7.09 506.69 C-116.31 515.64 -191.8 414.16 -197.57 319.28 C-202.87 232.3 -149.59 150.86 -14.03 172.43 L-13.67
						 172.49" class="st6"/>
			<rect v:rectContext="textBkgnd" x="-214.089" y="280.228" width="50.2229" height="9.59985" class="st7"/>
			<text x="-214.09" y="287.43" class="st8" v:langID="1033"><v:paragraph v:horizAlign="1"/><v:tabList/>0------/1000010</text>		</g>
		<g id="shape20-86" v:mID="20" v:groupContext="shape" v:layerMember="0" transform="translate(336.657,-50.512)">
			<title>Dynamic connector.20</title>
			<desc>1------/0000001</desc>
			<v:textBlock v:margins="rect(4,4,4,4)" v:tabSpace="42.5197"/>
			<v:textRect cx="167.163" cy="316.981" width="60.04" height="17.6036"/>
			<path d="M-7.09 506.69 C46.27 529.82 157.32 417.08 167.71 312.15 C176.99 218.39 105.89 130.86 -0.55 171 L-0.88 171.14"
					class="st6"/>
			<rect v:rectContext="textBkgnd" x="142.052" y="312.182" width="50.2229" height="9.59985" class="st7"/>
			<text x="142.05" y="319.38" class="st8" v:langID="1033"><v:paragraph v:horizAlign="1"/><v:tabList/>1------/0000001</text>		</g>
	</g>
</svg>
